<?xml version="1.0" encoding="utf-8" standalone="no"?>
<!DOCTYPE svg PUBLIC "-//W3C//DTD SVG 1.1//EN"
  "http://www.w3.org/Graphics/SVG/1.1/DTD/svg11.dtd">
<svg xmlns:xlink="http://www.w3.org/1999/xlink" width="432pt" height="216pt" viewBox="0 0 432 216" xmlns="http://www.w3.org/2000/svg" version="1.1">
 <metadata>
  <rdf:RDF xmlns:dc="http://purl.org/dc/elements/1.1/" xmlns:cc="http://creativecommons.org/ns#" xmlns:rdf="http://www.w3.org/1999/02/22-rdf-syntax-ns#">
   <cc:Work>
    <dc:type rdf:resource="http://purl.org/dc/dcmitype/StillImage"/>
    <dc:date>2022-06-06T12:06:48.864744</dc:date>
    <dc:format>image/svg+xml</dc:format>
    <dc:creator>
     <cc:Agent>
      <dc:title>Matplotlib v3.5.1, https://matplotlib.org/</dc:title>
     </cc:Agent>
    </dc:creator>
   </cc:Work>
  </rdf:RDF>
 </metadata>
 <defs>
  <style type="text/css">*{stroke-linejoin: round; stroke-linecap: butt}</style>
 </defs>
 <g id="figure_1">
  <g id="patch_1">
   <path d="M 0 216 
L 432 216 
L 432 0 
L 0 0 
z
" style="fill: #ffffff"/>
  </g>
  <g id="axes_1">
   <g id="patch_2">
    <path d="M 53.75 174.04 
L 411.75 174.04 
L 411.75 28.32 
L 53.75 28.32 
z
" style="fill: #ffffff"/>
   </g>
   <g id="matplotlib.axis_1">
    <g id="xtick_1">
     <g id="line2d_1">
      <defs>
       <path id="m2adfb793a9" d="M 0 0 
L 0 3.5 
" style="stroke: #000000; stroke-width: 0.8"/>
      </defs>
      <g>
       <use xlink:href="#m2adfb793a9" x="53.75" y="174.04" style="stroke: #000000; stroke-width: 0.8"/>
      </g>
     </g>
     <g id="text_1">
      <!-- 0 -->
      <g transform="translate(50.56875 188.638438)scale(0.1 -0.1)">
       <defs>
        <path id="DejaVuSans-30" d="M 2034 4250 
Q 1547 4250 1301 3770 
Q 1056 3291 1056 2328 
Q 1056 1369 1301 889 
Q 1547 409 2034 409 
Q 2525 409 2770 889 
Q 3016 1369 3016 2328 
Q 3016 3291 2770 3770 
Q 2525 4250 2034 4250 
z
M 2034 4750 
Q 2819 4750 3233 4129 
Q 3647 3509 3647 2328 
Q 3647 1150 3233 529 
Q 2819 -91 2034 -91 
Q 1250 -91 836 529 
Q 422 1150 422 2328 
Q 422 3509 836 4129 
Q 1250 4750 2034 4750 
z
" transform="scale(0.015625)"/>
       </defs>
       <use xlink:href="#DejaVuSans-30"/>
      </g>
     </g>
    </g>
    <g id="xtick_2">
     <g id="line2d_2">
      <g>
       <use xlink:href="#m2adfb793a9" x="98.5" y="174.04" style="stroke: #000000; stroke-width: 0.8"/>
      </g>
     </g>
     <g id="text_2">
      <!-- 50 -->
      <g transform="translate(92.1375 188.638438)scale(0.1 -0.1)">
       <defs>
        <path id="DejaVuSans-35" d="M 691 4666 
L 3169 4666 
L 3169 4134 
L 1269 4134 
L 1269 2991 
Q 1406 3038 1543 3061 
Q 1681 3084 1819 3084 
Q 2600 3084 3056 2656 
Q 3513 2228 3513 1497 
Q 3513 744 3044 326 
Q 2575 -91 1722 -91 
Q 1428 -91 1123 -41 
Q 819 9 494 109 
L 494 744 
Q 775 591 1075 516 
Q 1375 441 1709 441 
Q 2250 441 2565 725 
Q 2881 1009 2881 1497 
Q 2881 1984 2565 2268 
Q 2250 2553 1709 2553 
Q 1456 2553 1204 2497 
Q 953 2441 691 2322 
L 691 4666 
z
" transform="scale(0.015625)"/>
       </defs>
       <use xlink:href="#DejaVuSans-35"/>
       <use xlink:href="#DejaVuSans-30" x="63.623047"/>
      </g>
     </g>
    </g>
    <g id="xtick_3">
     <g id="line2d_3">
      <g>
       <use xlink:href="#m2adfb793a9" x="143.25" y="174.04" style="stroke: #000000; stroke-width: 0.8"/>
      </g>
     </g>
     <g id="text_3">
      <!-- 100 -->
      <g transform="translate(133.70625 188.638438)scale(0.1 -0.1)">
       <defs>
        <path id="DejaVuSans-31" d="M 794 531 
L 1825 531 
L 1825 4091 
L 703 3866 
L 703 4441 
L 1819 4666 
L 2450 4666 
L 2450 531 
L 3481 531 
L 3481 0 
L 794 0 
L 794 531 
z
" transform="scale(0.015625)"/>
       </defs>
       <use xlink:href="#DejaVuSans-31"/>
       <use xlink:href="#DejaVuSans-30" x="63.623047"/>
       <use xlink:href="#DejaVuSans-30" x="127.246094"/>
      </g>
     </g>
    </g>
    <g id="xtick_4">
     <g id="line2d_4">
      <g>
       <use xlink:href="#m2adfb793a9" x="188" y="174.04" style="stroke: #000000; stroke-width: 0.8"/>
      </g>
     </g>
     <g id="text_4">
      <!-- 150 -->
      <g transform="translate(178.45625 188.638438)scale(0.1 -0.1)">
       <use xlink:href="#DejaVuSans-31"/>
       <use xlink:href="#DejaVuSans-35" x="63.623047"/>
       <use xlink:href="#DejaVuSans-30" x="127.246094"/>
      </g>
     </g>
    </g>
    <g id="xtick_5">
     <g id="line2d_5">
      <g>
       <use xlink:href="#m2adfb793a9" x="232.75" y="174.04" style="stroke: #000000; stroke-width: 0.8"/>
      </g>
     </g>
     <g id="text_5">
      <!-- 200 -->
      <g transform="translate(223.20625 188.638438)scale(0.1 -0.1)">
       <defs>
        <path id="DejaVuSans-32" d="M 1228 531 
L 3431 531 
L 3431 0 
L 469 0 
L 469 531 
Q 828 903 1448 1529 
Q 2069 2156 2228 2338 
Q 2531 2678 2651 2914 
Q 2772 3150 2772 3378 
Q 2772 3750 2511 3984 
Q 2250 4219 1831 4219 
Q 1534 4219 1204 4116 
Q 875 4013 500 3803 
L 500 4441 
Q 881 4594 1212 4672 
Q 1544 4750 1819 4750 
Q 2544 4750 2975 4387 
Q 3406 4025 3406 3419 
Q 3406 3131 3298 2873 
Q 3191 2616 2906 2266 
Q 2828 2175 2409 1742 
Q 1991 1309 1228 531 
z
" transform="scale(0.015625)"/>
       </defs>
       <use xlink:href="#DejaVuSans-32"/>
       <use xlink:href="#DejaVuSans-30" x="63.623047"/>
       <use xlink:href="#DejaVuSans-30" x="127.246094"/>
      </g>
     </g>
    </g>
    <g id="xtick_6">
     <g id="line2d_6">
      <g>
       <use xlink:href="#m2adfb793a9" x="277.5" y="174.04" style="stroke: #000000; stroke-width: 0.8"/>
      </g>
     </g>
     <g id="text_6">
      <!-- 250 -->
      <g transform="translate(267.95625 188.638438)scale(0.1 -0.1)">
       <use xlink:href="#DejaVuSans-32"/>
       <use xlink:href="#DejaVuSans-35" x="63.623047"/>
       <use xlink:href="#DejaVuSans-30" x="127.246094"/>
      </g>
     </g>
    </g>
    <g id="xtick_7">
     <g id="line2d_7">
      <g>
       <use xlink:href="#m2adfb793a9" x="322.25" y="174.04" style="stroke: #000000; stroke-width: 0.8"/>
      </g>
     </g>
     <g id="text_7">
      <!-- 300 -->
      <g transform="translate(312.70625 188.638438)scale(0.1 -0.1)">
       <defs>
        <path id="DejaVuSans-33" d="M 2597 2516 
Q 3050 2419 3304 2112 
Q 3559 1806 3559 1356 
Q 3559 666 3084 287 
Q 2609 -91 1734 -91 
Q 1441 -91 1130 -33 
Q 819 25 488 141 
L 488 750 
Q 750 597 1062 519 
Q 1375 441 1716 441 
Q 2309 441 2620 675 
Q 2931 909 2931 1356 
Q 2931 1769 2642 2001 
Q 2353 2234 1838 2234 
L 1294 2234 
L 1294 2753 
L 1863 2753 
Q 2328 2753 2575 2939 
Q 2822 3125 2822 3475 
Q 2822 3834 2567 4026 
Q 2313 4219 1838 4219 
Q 1578 4219 1281 4162 
Q 984 4106 628 3988 
L 628 4550 
Q 988 4650 1302 4700 
Q 1616 4750 1894 4750 
Q 2613 4750 3031 4423 
Q 3450 4097 3450 3541 
Q 3450 3153 3228 2886 
Q 3006 2619 2597 2516 
z
" transform="scale(0.015625)"/>
       </defs>
       <use xlink:href="#DejaVuSans-33"/>
       <use xlink:href="#DejaVuSans-30" x="63.623047"/>
       <use xlink:href="#DejaVuSans-30" x="127.246094"/>
      </g>
     </g>
    </g>
    <g id="xtick_8">
     <g id="line2d_8">
      <g>
       <use xlink:href="#m2adfb793a9" x="367" y="174.04" style="stroke: #000000; stroke-width: 0.8"/>
      </g>
     </g>
     <g id="text_8">
      <!-- 350 -->
      <g transform="translate(357.45625 188.638438)scale(0.1 -0.1)">
       <use xlink:href="#DejaVuSans-33"/>
       <use xlink:href="#DejaVuSans-35" x="63.623047"/>
       <use xlink:href="#DejaVuSans-30" x="127.246094"/>
      </g>
     </g>
    </g>
    <g id="xtick_9">
     <g id="line2d_9">
      <g>
       <use xlink:href="#m2adfb793a9" x="411.75" y="174.04" style="stroke: #000000; stroke-width: 0.8"/>
      </g>
     </g>
     <g id="text_9">
      <!-- 400 -->
      <g transform="translate(402.20625 188.638438)scale(0.1 -0.1)">
       <defs>
        <path id="DejaVuSans-34" d="M 2419 4116 
L 825 1625 
L 2419 1625 
L 2419 4116 
z
M 2253 4666 
L 3047 4666 
L 3047 1625 
L 3713 1625 
L 3713 1100 
L 3047 1100 
L 3047 0 
L 2419 0 
L 2419 1100 
L 313 1100 
L 313 1709 
L 2253 4666 
z
" transform="scale(0.015625)"/>
       </defs>
       <use xlink:href="#DejaVuSans-34"/>
       <use xlink:href="#DejaVuSans-30" x="63.623047"/>
       <use xlink:href="#DejaVuSans-30" x="127.246094"/>
      </g>
     </g>
    </g>
    <g id="text_10">
     <!-- time  -->
     <g transform="translate(219.864844 202.316563)scale(0.1 -0.1)">
      <defs>
       <path id="DejaVuSans-74" d="M 1172 4494 
L 1172 3500 
L 2356 3500 
L 2356 3053 
L 1172 3053 
L 1172 1153 
Q 1172 725 1289 603 
Q 1406 481 1766 481 
L 2356 481 
L 2356 0 
L 1766 0 
Q 1100 0 847 248 
Q 594 497 594 1153 
L 594 3053 
L 172 3053 
L 172 3500 
L 594 3500 
L 594 4494 
L 1172 4494 
z
" transform="scale(0.015625)"/>
       <path id="DejaVuSans-69" d="M 603 3500 
L 1178 3500 
L 1178 0 
L 603 0 
L 603 3500 
z
M 603 4863 
L 1178 4863 
L 1178 4134 
L 603 4134 
L 603 4863 
z
" transform="scale(0.015625)"/>
       <path id="DejaVuSans-6d" d="M 3328 2828 
Q 3544 3216 3844 3400 
Q 4144 3584 4550 3584 
Q 5097 3584 5394 3201 
Q 5691 2819 5691 2113 
L 5691 0 
L 5113 0 
L 5113 2094 
Q 5113 2597 4934 2840 
Q 4756 3084 4391 3084 
Q 3944 3084 3684 2787 
Q 3425 2491 3425 1978 
L 3425 0 
L 2847 0 
L 2847 2094 
Q 2847 2600 2669 2842 
Q 2491 3084 2119 3084 
Q 1678 3084 1418 2786 
Q 1159 2488 1159 1978 
L 1159 0 
L 581 0 
L 581 3500 
L 1159 3500 
L 1159 2956 
Q 1356 3278 1631 3431 
Q 1906 3584 2284 3584 
Q 2666 3584 2933 3390 
Q 3200 3197 3328 2828 
z
" transform="scale(0.015625)"/>
       <path id="DejaVuSans-65" d="M 3597 1894 
L 3597 1613 
L 953 1613 
Q 991 1019 1311 708 
Q 1631 397 2203 397 
Q 2534 397 2845 478 
Q 3156 559 3463 722 
L 3463 178 
Q 3153 47 2828 -22 
Q 2503 -91 2169 -91 
Q 1331 -91 842 396 
Q 353 884 353 1716 
Q 353 2575 817 3079 
Q 1281 3584 2069 3584 
Q 2775 3584 3186 3129 
Q 3597 2675 3597 1894 
z
M 3022 2063 
Q 3016 2534 2758 2815 
Q 2500 3097 2075 3097 
Q 1594 3097 1305 2825 
Q 1016 2553 972 2059 
L 3022 2063 
z
" transform="scale(0.015625)"/>
       <path id="DejaVuSans-20" transform="scale(0.015625)"/>
      </defs>
      <use xlink:href="#DejaVuSans-74"/>
      <use xlink:href="#DejaVuSans-69" x="39.208984"/>
      <use xlink:href="#DejaVuSans-6d" x="66.992188"/>
      <use xlink:href="#DejaVuSans-65" x="164.404297"/>
      <use xlink:href="#DejaVuSans-20" x="225.927734"/>
     </g>
    </g>
   </g>
   <g id="matplotlib.axis_2">
    <g id="ytick_1">
     <g id="line2d_10">
      <defs>
       <path id="m0212950d13" d="M 0 0 
L -3.5 0 
" style="stroke: #000000; stroke-width: 0.8"/>
      </defs>
      <g>
       <use xlink:href="#m0212950d13" x="53.75" y="167.416364" style="stroke: #000000; stroke-width: 0.8"/>
      </g>
     </g>
     <g id="text_11">
      <!-- 0 -->
      <g transform="translate(40.3875 171.215582)scale(0.1 -0.1)">
       <use xlink:href="#DejaVuSans-30"/>
      </g>
     </g>
    </g>
    <g id="ytick_2">
     <g id="line2d_11">
      <g>
       <use xlink:href="#m0212950d13" x="53.75" y="138.028339" style="stroke: #000000; stroke-width: 0.8"/>
      </g>
     </g>
     <g id="text_12">
      <!-- 100 -->
      <g transform="translate(27.6625 141.827557)scale(0.1 -0.1)">
       <use xlink:href="#DejaVuSans-31"/>
       <use xlink:href="#DejaVuSans-30" x="63.623047"/>
       <use xlink:href="#DejaVuSans-30" x="127.246094"/>
      </g>
     </g>
    </g>
    <g id="ytick_3">
     <g id="line2d_12">
      <g>
       <use xlink:href="#m0212950d13" x="53.75" y="108.640313" style="stroke: #000000; stroke-width: 0.8"/>
      </g>
     </g>
     <g id="text_13">
      <!-- 200 -->
      <g transform="translate(27.6625 112.439532)scale(0.1 -0.1)">
       <use xlink:href="#DejaVuSans-32"/>
       <use xlink:href="#DejaVuSans-30" x="63.623047"/>
       <use xlink:href="#DejaVuSans-30" x="127.246094"/>
      </g>
     </g>
    </g>
    <g id="ytick_4">
     <g id="line2d_13">
      <g>
       <use xlink:href="#m0212950d13" x="53.75" y="79.252288" style="stroke: #000000; stroke-width: 0.8"/>
      </g>
     </g>
     <g id="text_14">
      <!-- 300 -->
      <g transform="translate(27.6625 83.051507)scale(0.1 -0.1)">
       <use xlink:href="#DejaVuSans-33"/>
       <use xlink:href="#DejaVuSans-30" x="63.623047"/>
       <use xlink:href="#DejaVuSans-30" x="127.246094"/>
      </g>
     </g>
    </g>
    <g id="ytick_5">
     <g id="line2d_14">
      <g>
       <use xlink:href="#m0212950d13" x="53.75" y="49.864263" style="stroke: #000000; stroke-width: 0.8"/>
      </g>
     </g>
     <g id="text_15">
      <!-- 400 -->
      <g transform="translate(27.6625 53.663482)scale(0.1 -0.1)">
       <use xlink:href="#DejaVuSans-34"/>
       <use xlink:href="#DejaVuSans-30" x="63.623047"/>
       <use xlink:href="#DejaVuSans-30" x="127.246094"/>
      </g>
     </g>
    </g>
    <g id="text_16">
     <!-- $|R|$ (regions) -->
     <g transform="translate(21.2625 132.08)rotate(-90)scale(0.1 -0.1)">
      <defs>
       <path id="DejaVuSans-7c" d="M 1344 4891 
L 1344 -1509 
L 813 -1509 
L 813 4891 
L 1344 4891 
z
" transform="scale(0.015625)"/>
       <path id="DejaVuSans-Oblique-52" d="M 1613 4147 
L 1294 2491 
L 2106 2491 
Q 2584 2491 2879 2755 
Q 3175 3019 3175 3444 
Q 3175 3784 2976 3965 
Q 2778 4147 2406 4147 
L 1613 4147 
z
M 2772 2241 
Q 2972 2194 3105 2009 
Q 3238 1825 3413 1275 
L 3809 0 
L 3144 0 
L 2778 1197 
Q 2638 1659 2453 1815 
Q 2269 1972 1888 1972 
L 1191 1972 
L 806 0 
L 172 0 
L 1081 4666 
L 2503 4666 
Q 3150 4666 3495 4373 
Q 3841 4081 3841 3531 
Q 3841 3044 3547 2687 
Q 3253 2331 2772 2241 
z
" transform="scale(0.015625)"/>
       <path id="DejaVuSans-28" d="M 1984 4856 
Q 1566 4138 1362 3434 
Q 1159 2731 1159 2009 
Q 1159 1288 1364 580 
Q 1569 -128 1984 -844 
L 1484 -844 
Q 1016 -109 783 600 
Q 550 1309 550 2009 
Q 550 2706 781 3412 
Q 1013 4119 1484 4856 
L 1984 4856 
z
" transform="scale(0.015625)"/>
       <path id="DejaVuSans-72" d="M 2631 2963 
Q 2534 3019 2420 3045 
Q 2306 3072 2169 3072 
Q 1681 3072 1420 2755 
Q 1159 2438 1159 1844 
L 1159 0 
L 581 0 
L 581 3500 
L 1159 3500 
L 1159 2956 
Q 1341 3275 1631 3429 
Q 1922 3584 2338 3584 
Q 2397 3584 2469 3576 
Q 2541 3569 2628 3553 
L 2631 2963 
z
" transform="scale(0.015625)"/>
       <path id="DejaVuSans-67" d="M 2906 1791 
Q 2906 2416 2648 2759 
Q 2391 3103 1925 3103 
Q 1463 3103 1205 2759 
Q 947 2416 947 1791 
Q 947 1169 1205 825 
Q 1463 481 1925 481 
Q 2391 481 2648 825 
Q 2906 1169 2906 1791 
z
M 3481 434 
Q 3481 -459 3084 -895 
Q 2688 -1331 1869 -1331 
Q 1566 -1331 1297 -1286 
Q 1028 -1241 775 -1147 
L 775 -588 
Q 1028 -725 1275 -790 
Q 1522 -856 1778 -856 
Q 2344 -856 2625 -561 
Q 2906 -266 2906 331 
L 2906 616 
Q 2728 306 2450 153 
Q 2172 0 1784 0 
Q 1141 0 747 490 
Q 353 981 353 1791 
Q 353 2603 747 3093 
Q 1141 3584 1784 3584 
Q 2172 3584 2450 3431 
Q 2728 3278 2906 2969 
L 2906 3500 
L 3481 3500 
L 3481 434 
z
" transform="scale(0.015625)"/>
       <path id="DejaVuSans-6f" d="M 1959 3097 
Q 1497 3097 1228 2736 
Q 959 2375 959 1747 
Q 959 1119 1226 758 
Q 1494 397 1959 397 
Q 2419 397 2687 759 
Q 2956 1122 2956 1747 
Q 2956 2369 2687 2733 
Q 2419 3097 1959 3097 
z
M 1959 3584 
Q 2709 3584 3137 3096 
Q 3566 2609 3566 1747 
Q 3566 888 3137 398 
Q 2709 -91 1959 -91 
Q 1206 -91 779 398 
Q 353 888 353 1747 
Q 353 2609 779 3096 
Q 1206 3584 1959 3584 
z
" transform="scale(0.015625)"/>
       <path id="DejaVuSans-6e" d="M 3513 2113 
L 3513 0 
L 2938 0 
L 2938 2094 
Q 2938 2591 2744 2837 
Q 2550 3084 2163 3084 
Q 1697 3084 1428 2787 
Q 1159 2491 1159 1978 
L 1159 0 
L 581 0 
L 581 3500 
L 1159 3500 
L 1159 2956 
Q 1366 3272 1645 3428 
Q 1925 3584 2291 3584 
Q 2894 3584 3203 3211 
Q 3513 2838 3513 2113 
z
" transform="scale(0.015625)"/>
       <path id="DejaVuSans-73" d="M 2834 3397 
L 2834 2853 
Q 2591 2978 2328 3040 
Q 2066 3103 1784 3103 
Q 1356 3103 1142 2972 
Q 928 2841 928 2578 
Q 928 2378 1081 2264 
Q 1234 2150 1697 2047 
L 1894 2003 
Q 2506 1872 2764 1633 
Q 3022 1394 3022 966 
Q 3022 478 2636 193 
Q 2250 -91 1575 -91 
Q 1294 -91 989 -36 
Q 684 19 347 128 
L 347 722 
Q 666 556 975 473 
Q 1284 391 1588 391 
Q 1994 391 2212 530 
Q 2431 669 2431 922 
Q 2431 1156 2273 1281 
Q 2116 1406 1581 1522 
L 1381 1569 
Q 847 1681 609 1914 
Q 372 2147 372 2553 
Q 372 3047 722 3315 
Q 1072 3584 1716 3584 
Q 2034 3584 2315 3537 
Q 2597 3491 2834 3397 
z
" transform="scale(0.015625)"/>
       <path id="DejaVuSans-29" d="M 513 4856 
L 1013 4856 
Q 1481 4119 1714 3412 
Q 1947 2706 1947 2009 
Q 1947 1309 1714 600 
Q 1481 -109 1013 -844 
L 513 -844 
Q 928 -128 1133 580 
Q 1338 1288 1338 2009 
Q 1338 2731 1133 3434 
Q 928 4138 513 4856 
z
" transform="scale(0.015625)"/>
      </defs>
      <use xlink:href="#DejaVuSans-7c" transform="translate(0 0.578125)"/>
      <use xlink:href="#DejaVuSans-Oblique-52" transform="translate(33.691406 0.578125)"/>
      <use xlink:href="#DejaVuSans-7c" transform="translate(103.173828 0.578125)"/>
      <use xlink:href="#DejaVuSans-20" transform="translate(136.865234 0.578125)"/>
      <use xlink:href="#DejaVuSans-28" transform="translate(168.652344 0.578125)"/>
      <use xlink:href="#DejaVuSans-72" transform="translate(207.666016 0.578125)"/>
      <use xlink:href="#DejaVuSans-65" transform="translate(248.779297 0.578125)"/>
      <use xlink:href="#DejaVuSans-67" transform="translate(310.302734 0.578125)"/>
      <use xlink:href="#DejaVuSans-69" transform="translate(373.779297 0.578125)"/>
      <use xlink:href="#DejaVuSans-6f" transform="translate(401.5625 0.578125)"/>
      <use xlink:href="#DejaVuSans-6e" transform="translate(462.744141 0.578125)"/>
      <use xlink:href="#DejaVuSans-73" transform="translate(526.123047 0.578125)"/>
      <use xlink:href="#DejaVuSans-29" transform="translate(578.222656 0.578125)"/>
     </g>
    </g>
   </g>
   <g id="line2d_15">
    <path d="M 53.75 167.416364 
L 61.056122 123.648778 
L 68.362245 128.955276 
L 75.668367 131.496034 
L 82.97449 133.137192 
L 90.280612 133.992383 
L 97.586735 134.523327 
L 104.892857 134.912228 
L 112.19898 135.197619 
L 119.505102 135.383743 
L 126.811224 135.552561 
L 134.117347 135.670113 
L 141.423469 135.739338 
L 148.729592 135.823257 
L 156.035714 135.889217 
L 163.341837 135.944074 
L 170.647959 136.015585 
L 177.954082 136.079586 
L 185.260204 136.114199 
L 192.566327 136.161219 
L 199.872449 136.175587 
L 207.178571 136.205301 
L 214.484694 136.232077 
L 221.790816 136.246445 
L 229.096939 136.268649 
L 236.403061 136.291833 
L 243.709184 136.320568 
L 251.015306 136.332976 
L 258.321429 136.358119 
L 265.627551 136.365629 
L 272.933673 136.398609 
L 280.239796 136.414283 
L 287.545918 136.417548 
L 294.852041 136.433222 
L 302.158163 136.446936 
L 309.464286 136.459998 
L 316.770408 136.467508 
L 324.076531 136.480569 
L 331.382653 136.489712 
L 338.688776 136.49559 
L 345.994898 136.5031 
L 353.30102 136.511916 
L 360.607143 136.516161 
L 367.913265 136.522366 
L 375.219388 136.52661 
L 382.52551 136.535427 
L 389.831633 136.53608 
L 397.137755 136.540325 
L 404.443878 136.547182 
L 411.75 136.5511 
" clip-path="url(#p22502c2c54)" style="fill: none; stroke: #440154; stroke-width: 2; stroke-linecap: square"/>
   </g>
   <g id="line2d_16">
    <path d="M 53.75 167.416364 
L 61.056122 162.24603 
L 68.362245 163.398041 
L 75.668367 163.603757 
L 82.97449 163.697799 
L 90.280612 163.729146 
L 97.586735 163.745799 
L 104.892857 163.752657 
L 112.19898 163.756575 
L 119.505102 163.759514 
L 126.811224 163.760493 
L 134.117347 163.760493 
L 141.423469 163.765391 
L 148.729592 35.641439 
L 156.035714 37.698274 
L 163.341837 38.090767 
L 170.647959 38.178278 
L 177.954082 38.234442 
L 185.260204 38.257626 
L 192.566327 38.267749 
L 199.872449 38.275585 
L 207.178571 38.274279 
L 214.484694 38.276891 
L 221.790816 38.28081 
L 229.096939 38.285055 
L 236.403061 128.574537 
L 243.709184 133.530665 
L 251.015306 137.10882 
L 258.321429 139.560434 
L 265.627551 140.908365 
L 272.933673 141.647311 
L 280.239796 142.17303 
L 287.545918 142.526666 
L 294.852041 142.726504 
L 302.158163 142.813689 
L 309.464286 142.968792 
L 316.770408 143.023323 
L 324.076531 120.349156 
L 331.382653 131.213256 
L 338.688776 133.098987 
L 345.994898 134.086425 
L 353.30102 134.463245 
L 360.607143 134.790758 
L 367.913265 135.027821 
L 375.219388 135.208068 
L 382.52551 135.323334 
L 389.831633 135.486274 
L 397.137755 135.559091 
L 404.443878 135.634194 
L 411.75 135.706358 
" clip-path="url(#p22502c2c54)" style="fill: none; stroke-dasharray: 7.4,3.2; stroke-dashoffset: 0; stroke: #3b528b; stroke-width: 2"/>
   </g>
   <g id="line2d_17">
    <path d="M 53.75 167.416364 
L 61.056122 162.24603 
L 68.362245 163.398041 
L 75.668367 163.603757 
L 82.97449 163.697799 
L 90.280612 163.729146 
L 97.586735 163.745799 
L 104.892857 163.752657 
L 112.19898 163.756575 
L 119.505102 163.759514 
L 126.811224 163.760493 
L 134.117347 163.760493 
L 141.423469 163.765391 
L 148.729592 163.760493 
L 156.035714 163.765391 
L 163.341837 163.765391 
L 170.647959 163.766371 
L 177.954082 163.767351 
L 185.260204 163.766371 
L 192.566327 163.76833 
L 199.872449 163.76833 
L 207.178571 163.76833 
L 214.484694 163.76931 
L 221.790816 163.770289 
L 229.096939 163.772249 
L 236.403061 163.772249 
L 243.709184 163.773228 
L 251.015306 163.773228 
L 258.321429 163.774208 
L 265.627551 163.774208 
L 272.933673 163.774208 
L 280.239796 163.774208 
L 287.545918 163.774208 
L 294.852041 163.774208 
L 302.158163 163.774208 
L 309.464286 163.774208 
L 316.770408 163.774208 
L 324.076531 163.774208 
L 331.382653 163.774208 
L 338.688776 163.774208 
L 345.994898 163.774208 
L 353.30102 163.774208 
L 360.607143 163.774208 
L 367.913265 163.774208 
L 375.219388 163.774208 
L 382.52551 163.774208 
L 389.831633 163.774208 
L 397.137755 163.774208 
L 404.443878 163.774208 
L 411.75 163.774208 
" clip-path="url(#p22502c2c54)" style="fill: none; stroke-dasharray: 12.8,3.2,2,3.2; stroke-dashoffset: 0; stroke: #21918c; stroke-width: 2"/>
   </g>
   <g id="line2d_18">
    <path d="M 53.75 167.416364 
L 61.056122 131.915303 
L 68.362245 135.983585 
L 75.668367 138.750957 
L 82.97449 140.565831 
L 90.280612 141.664943 
L 97.586735 142.256949 
L 104.892857 142.717688 
L 112.19898 142.990343 
L 119.505102 143.255815 
L 126.811224 143.389694 
L 134.117347 143.494511 
L 141.423469 143.573206 
L 148.729592 143.66986 
L 156.035714 143.722432 
L 163.341837 143.760963 
L 170.647959 143.804718 
L 177.954082 143.847821 
L 185.260204 143.870351 
L 192.566327 143.886025 
L 199.872449 143.909535 
L 207.178571 143.940883 
L 214.484694 143.969944 
L 221.790816 143.988557 
L 229.096939 144.007496 
L 236.403061 144.006842 
L 243.709184 144.010108 
L 251.015306 144.033945 
L 258.321429 144.052231 
L 265.627551 144.072802 
L 272.933673 144.08717 
L 280.239796 144.097292 
L 287.545918 144.111007 
L 294.852041 144.123741 
L 302.158163 144.127986 
L 309.464286 144.133211 
L 316.770408 144.140395 
L 324.076531 144.150191 
L 331.382653 144.155089 
L 338.688776 144.16064 
L 345.994898 144.166517 
L 353.30102 144.17664 
L 360.607143 144.177946 
L 367.913265 144.17566 
L 375.219388 144.180885 
L 382.52551 144.183171 
L 389.831633 144.188395 
L 397.137755 144.194273 
L 404.443878 144.205701 
L 411.75 144.20864 
" clip-path="url(#p22502c2c54)" style="fill: none; stroke-dasharray: 2,3.3; stroke-dashoffset: 0; stroke: #5ec962; stroke-width: 2"/>
   </g>
   <g id="line2d_19">
    <path d="M 53.75 167.416364 
L 61.056122 34.943636 
L 68.362245 37.168636 
L 75.668367 37.691743 
L 82.97449 37.878847 
L 90.280612 37.967011 
L 97.586735 38.004889 
L 104.892857 38.029379 
L 112.19898 38.045706 
L 119.505102 38.049298 
L 126.811224 38.053869 
L 134.117347 38.057787 
L 141.423469 38.057461 
L 148.729592 38.058114 
L 156.035714 38.062032 
L 163.341837 38.063665 
L 170.647959 38.064971 
L 177.954082 38.066277 
L 185.260204 38.066277 
L 192.566327 38.067257 
L 199.872449 38.067583 
L 207.178571 38.068236 
L 214.484694 38.070196 
L 221.790816 38.070849 
L 229.096939 38.071502 
L 236.403061 38.072155 
L 243.709184 38.072481 
L 251.015306 38.072481 
L 258.321429 38.072481 
L 265.627551 38.072481 
L 272.933673 38.072808 
L 280.239796 38.072808 
L 287.545918 38.072808 
L 294.852041 38.072808 
L 302.158163 38.072808 
L 309.464286 38.072808 
L 316.770408 38.073135 
L 324.076531 38.073135 
L 331.382653 38.073461 
L 338.688776 38.073461 
L 345.994898 38.073461 
L 353.30102 38.073461 
L 360.607143 38.073461 
L 367.913265 38.073461 
L 375.219388 38.073461 
L 382.52551 38.073461 
L 389.831633 38.073461 
L 397.137755 38.073461 
L 404.443878 38.073461 
L 411.75 38.073461 
" clip-path="url(#p22502c2c54)" style="fill: none; stroke: #fde725; stroke-width: 2; stroke-linecap: square"/>
   </g>
   <g id="patch_3">
    <path d="M 53.75 174.04 
L 53.75 28.32 
" style="fill: none; stroke: #000000; stroke-width: 0.8; stroke-linejoin: miter; stroke-linecap: square"/>
   </g>
   <g id="patch_4">
    <path d="M 411.75 174.04 
L 411.75 28.32 
" style="fill: none; stroke: #000000; stroke-width: 0.8; stroke-linejoin: miter; stroke-linecap: square"/>
   </g>
   <g id="patch_5">
    <path d="M 53.75 174.04 
L 411.75 174.04 
" style="fill: none; stroke: #000000; stroke-width: 0.8; stroke-linejoin: miter; stroke-linecap: square"/>
   </g>
   <g id="patch_6">
    <path d="M 53.75 28.32 
L 411.75 28.32 
" style="fill: none; stroke: #000000; stroke-width: 0.8; stroke-linejoin: miter; stroke-linecap: square"/>
   </g>
   <g id="text_17">
    <!-- $|R|$ for diverse phenomena when scenario=exp -->
    <g transform="translate(91.27 22.32)scale(0.12 -0.12)">
     <defs>
      <path id="DejaVuSans-66" d="M 2375 4863 
L 2375 4384 
L 1825 4384 
Q 1516 4384 1395 4259 
Q 1275 4134 1275 3809 
L 1275 3500 
L 2222 3500 
L 2222 3053 
L 1275 3053 
L 1275 0 
L 697 0 
L 697 3053 
L 147 3053 
L 147 3500 
L 697 3500 
L 697 3744 
Q 697 4328 969 4595 
Q 1241 4863 1831 4863 
L 2375 4863 
z
" transform="scale(0.015625)"/>
      <path id="DejaVuSans-64" d="M 2906 2969 
L 2906 4863 
L 3481 4863 
L 3481 0 
L 2906 0 
L 2906 525 
Q 2725 213 2448 61 
Q 2172 -91 1784 -91 
Q 1150 -91 751 415 
Q 353 922 353 1747 
Q 353 2572 751 3078 
Q 1150 3584 1784 3584 
Q 2172 3584 2448 3432 
Q 2725 3281 2906 2969 
z
M 947 1747 
Q 947 1113 1208 752 
Q 1469 391 1925 391 
Q 2381 391 2643 752 
Q 2906 1113 2906 1747 
Q 2906 2381 2643 2742 
Q 2381 3103 1925 3103 
Q 1469 3103 1208 2742 
Q 947 2381 947 1747 
z
" transform="scale(0.015625)"/>
      <path id="DejaVuSans-76" d="M 191 3500 
L 800 3500 
L 1894 563 
L 2988 3500 
L 3597 3500 
L 2284 0 
L 1503 0 
L 191 3500 
z
" transform="scale(0.015625)"/>
      <path id="DejaVuSans-70" d="M 1159 525 
L 1159 -1331 
L 581 -1331 
L 581 3500 
L 1159 3500 
L 1159 2969 
Q 1341 3281 1617 3432 
Q 1894 3584 2278 3584 
Q 2916 3584 3314 3078 
Q 3713 2572 3713 1747 
Q 3713 922 3314 415 
Q 2916 -91 2278 -91 
Q 1894 -91 1617 61 
Q 1341 213 1159 525 
z
M 3116 1747 
Q 3116 2381 2855 2742 
Q 2594 3103 2138 3103 
Q 1681 3103 1420 2742 
Q 1159 2381 1159 1747 
Q 1159 1113 1420 752 
Q 1681 391 2138 391 
Q 2594 391 2855 752 
Q 3116 1113 3116 1747 
z
" transform="scale(0.015625)"/>
      <path id="DejaVuSans-68" d="M 3513 2113 
L 3513 0 
L 2938 0 
L 2938 2094 
Q 2938 2591 2744 2837 
Q 2550 3084 2163 3084 
Q 1697 3084 1428 2787 
Q 1159 2491 1159 1978 
L 1159 0 
L 581 0 
L 581 4863 
L 1159 4863 
L 1159 2956 
Q 1366 3272 1645 3428 
Q 1925 3584 2291 3584 
Q 2894 3584 3203 3211 
Q 3513 2838 3513 2113 
z
" transform="scale(0.015625)"/>
      <path id="DejaVuSans-61" d="M 2194 1759 
Q 1497 1759 1228 1600 
Q 959 1441 959 1056 
Q 959 750 1161 570 
Q 1363 391 1709 391 
Q 2188 391 2477 730 
Q 2766 1069 2766 1631 
L 2766 1759 
L 2194 1759 
z
M 3341 1997 
L 3341 0 
L 2766 0 
L 2766 531 
Q 2569 213 2275 61 
Q 1981 -91 1556 -91 
Q 1019 -91 701 211 
Q 384 513 384 1019 
Q 384 1609 779 1909 
Q 1175 2209 1959 2209 
L 2766 2209 
L 2766 2266 
Q 2766 2663 2505 2880 
Q 2244 3097 1772 3097 
Q 1472 3097 1187 3025 
Q 903 2953 641 2809 
L 641 3341 
Q 956 3463 1253 3523 
Q 1550 3584 1831 3584 
Q 2591 3584 2966 3190 
Q 3341 2797 3341 1997 
z
" transform="scale(0.015625)"/>
      <path id="DejaVuSans-77" d="M 269 3500 
L 844 3500 
L 1563 769 
L 2278 3500 
L 2956 3500 
L 3675 769 
L 4391 3500 
L 4966 3500 
L 4050 0 
L 3372 0 
L 2619 2869 
L 1863 0 
L 1184 0 
L 269 3500 
z
" transform="scale(0.015625)"/>
      <path id="DejaVuSans-63" d="M 3122 3366 
L 3122 2828 
Q 2878 2963 2633 3030 
Q 2388 3097 2138 3097 
Q 1578 3097 1268 2742 
Q 959 2388 959 1747 
Q 959 1106 1268 751 
Q 1578 397 2138 397 
Q 2388 397 2633 464 
Q 2878 531 3122 666 
L 3122 134 
Q 2881 22 2623 -34 
Q 2366 -91 2075 -91 
Q 1284 -91 818 406 
Q 353 903 353 1747 
Q 353 2603 823 3093 
Q 1294 3584 2113 3584 
Q 2378 3584 2631 3529 
Q 2884 3475 3122 3366 
z
" transform="scale(0.015625)"/>
      <path id="DejaVuSans-3d" d="M 678 2906 
L 4684 2906 
L 4684 2381 
L 678 2381 
L 678 2906 
z
M 678 1631 
L 4684 1631 
L 4684 1100 
L 678 1100 
L 678 1631 
z
" transform="scale(0.015625)"/>
      <path id="DejaVuSans-78" d="M 3513 3500 
L 2247 1797 
L 3578 0 
L 2900 0 
L 1881 1375 
L 863 0 
L 184 0 
L 1544 1831 
L 300 3500 
L 978 3500 
L 1906 2253 
L 2834 3500 
L 3513 3500 
z
" transform="scale(0.015625)"/>
     </defs>
     <use xlink:href="#DejaVuSans-7c" transform="translate(0 0.578125)"/>
     <use xlink:href="#DejaVuSans-Oblique-52" transform="translate(33.691406 0.578125)"/>
     <use xlink:href="#DejaVuSans-7c" transform="translate(103.173828 0.578125)"/>
     <use xlink:href="#DejaVuSans-20" transform="translate(136.865234 0.578125)"/>
     <use xlink:href="#DejaVuSans-66" transform="translate(168.652344 0.578125)"/>
     <use xlink:href="#DejaVuSans-6f" transform="translate(203.857422 0.578125)"/>
     <use xlink:href="#DejaVuSans-72" transform="translate(265.039062 0.578125)"/>
     <use xlink:href="#DejaVuSans-20" transform="translate(306.152344 0.578125)"/>
     <use xlink:href="#DejaVuSans-64" transform="translate(337.939453 0.578125)"/>
     <use xlink:href="#DejaVuSans-69" transform="translate(401.416016 0.578125)"/>
     <use xlink:href="#DejaVuSans-76" transform="translate(429.199219 0.578125)"/>
     <use xlink:href="#DejaVuSans-65" transform="translate(488.378906 0.578125)"/>
     <use xlink:href="#DejaVuSans-72" transform="translate(549.902344 0.578125)"/>
     <use xlink:href="#DejaVuSans-73" transform="translate(591.015625 0.578125)"/>
     <use xlink:href="#DejaVuSans-65" transform="translate(643.115234 0.578125)"/>
     <use xlink:href="#DejaVuSans-20" transform="translate(704.638672 0.578125)"/>
     <use xlink:href="#DejaVuSans-70" transform="translate(736.425781 0.578125)"/>
     <use xlink:href="#DejaVuSans-68" transform="translate(799.902344 0.578125)"/>
     <use xlink:href="#DejaVuSans-65" transform="translate(863.28125 0.578125)"/>
     <use xlink:href="#DejaVuSans-6e" transform="translate(924.804688 0.578125)"/>
     <use xlink:href="#DejaVuSans-6f" transform="translate(988.183594 0.578125)"/>
     <use xlink:href="#DejaVuSans-6d" transform="translate(1049.365234 0.578125)"/>
     <use xlink:href="#DejaVuSans-65" transform="translate(1146.777344 0.578125)"/>
     <use xlink:href="#DejaVuSans-6e" transform="translate(1208.300781 0.578125)"/>
     <use xlink:href="#DejaVuSans-61" transform="translate(1271.679688 0.578125)"/>
     <use xlink:href="#DejaVuSans-20" transform="translate(1332.958984 0.578125)"/>
     <use xlink:href="#DejaVuSans-77" transform="translate(1364.746094 0.578125)"/>
     <use xlink:href="#DejaVuSans-68" transform="translate(1446.533203 0.578125)"/>
     <use xlink:href="#DejaVuSans-65" transform="translate(1509.912109 0.578125)"/>
     <use xlink:href="#DejaVuSans-6e" transform="translate(1571.435547 0.578125)"/>
     <use xlink:href="#DejaVuSans-20" transform="translate(1634.814453 0.578125)"/>
     <use xlink:href="#DejaVuSans-73" transform="translate(1666.601562 0.578125)"/>
     <use xlink:href="#DejaVuSans-63" transform="translate(1718.701172 0.578125)"/>
     <use xlink:href="#DejaVuSans-65" transform="translate(1773.681641 0.578125)"/>
     <use xlink:href="#DejaVuSans-6e" transform="translate(1835.205078 0.578125)"/>
     <use xlink:href="#DejaVuSans-61" transform="translate(1898.583984 0.578125)"/>
     <use xlink:href="#DejaVuSans-72" transform="translate(1959.863281 0.578125)"/>
     <use xlink:href="#DejaVuSans-69" transform="translate(2000.976562 0.578125)"/>
     <use xlink:href="#DejaVuSans-6f" transform="translate(2028.759766 0.578125)"/>
     <use xlink:href="#DejaVuSans-3d" transform="translate(2089.941406 0.578125)"/>
     <use xlink:href="#DejaVuSans-65" transform="translate(2173.730469 0.578125)"/>
     <use xlink:href="#DejaVuSans-78" transform="translate(2235.253906 0.578125)"/>
     <use xlink:href="#DejaVuSans-70" transform="translate(2294.433594 0.578125)"/>
    </g>
   </g>
   <g id="legend_1">
    <g id="patch_7">
     <path d="M 328.485937 109.710625 
L 404.75 109.710625 
Q 406.75 109.710625 406.75 107.710625 
L 406.75 35.32 
Q 406.75 33.32 404.75 33.32 
L 328.485937 33.32 
Q 326.485937 33.32 326.485937 35.32 
L 326.485937 107.710625 
Q 326.485937 109.710625 328.485937 109.710625 
z
" style="fill: #ffffff; opacity: 0.8; stroke: #cccccc; stroke-linejoin: miter"/>
    </g>
    <g id="line2d_20">
     <path d="M 330.485937 41.418438 
L 340.485937 41.418438 
L 350.485937 41.418438 
" style="fill: none; stroke: #440154; stroke-width: 2; stroke-linecap: square"/>
    </g>
    <g id="text_18">
     <!-- multi -->
     <g transform="translate(358.485937 44.918438)scale(0.1 -0.1)">
      <defs>
       <path id="DejaVuSans-75" d="M 544 1381 
L 544 3500 
L 1119 3500 
L 1119 1403 
Q 1119 906 1312 657 
Q 1506 409 1894 409 
Q 2359 409 2629 706 
Q 2900 1003 2900 1516 
L 2900 3500 
L 3475 3500 
L 3475 0 
L 2900 0 
L 2900 538 
Q 2691 219 2414 64 
Q 2138 -91 1772 -91 
Q 1169 -91 856 284 
Q 544 659 544 1381 
z
M 1991 3584 
L 1991 3584 
z
" transform="scale(0.015625)"/>
       <path id="DejaVuSans-6c" d="M 603 4863 
L 1178 4863 
L 1178 0 
L 603 0 
L 603 4863 
z
" transform="scale(0.015625)"/>
      </defs>
      <use xlink:href="#DejaVuSans-6d"/>
      <use xlink:href="#DejaVuSans-75" x="97.412109"/>
      <use xlink:href="#DejaVuSans-6c" x="160.791016"/>
      <use xlink:href="#DejaVuSans-74" x="188.574219"/>
      <use xlink:href="#DejaVuSans-69" x="227.783203"/>
     </g>
    </g>
    <g id="line2d_21">
     <path d="M 330.485937 56.096563 
L 340.485937 56.096563 
L 350.485937 56.096563 
" style="fill: none; stroke-dasharray: 7.4,3.2; stroke-dashoffset: 0; stroke: #3b528b; stroke-width: 2"/>
    </g>
    <g id="text_19">
     <!-- dynamic -->
     <g transform="translate(358.485937 59.596563)scale(0.1 -0.1)">
      <defs>
       <path id="DejaVuSans-79" d="M 2059 -325 
Q 1816 -950 1584 -1140 
Q 1353 -1331 966 -1331 
L 506 -1331 
L 506 -850 
L 844 -850 
Q 1081 -850 1212 -737 
Q 1344 -625 1503 -206 
L 1606 56 
L 191 3500 
L 800 3500 
L 1894 763 
L 2988 3500 
L 3597 3500 
L 2059 -325 
z
" transform="scale(0.015625)"/>
      </defs>
      <use xlink:href="#DejaVuSans-64"/>
      <use xlink:href="#DejaVuSans-79" x="63.476562"/>
      <use xlink:href="#DejaVuSans-6e" x="122.65625"/>
      <use xlink:href="#DejaVuSans-61" x="186.035156"/>
      <use xlink:href="#DejaVuSans-6d" x="247.314453"/>
      <use xlink:href="#DejaVuSans-69" x="344.726562"/>
      <use xlink:href="#DejaVuSans-63" x="372.509766"/>
     </g>
    </g>
    <g id="line2d_22">
     <path d="M 330.485937 70.774688 
L 340.485937 70.774688 
L 350.485937 70.774688 
" style="fill: none; stroke-dasharray: 12.8,3.2,2,3.2; stroke-dashoffset: 0; stroke: #21918c; stroke-width: 2"/>
    </g>
    <g id="text_20">
     <!-- constant -->
     <g transform="translate(358.485937 74.274688)scale(0.1 -0.1)">
      <use xlink:href="#DejaVuSans-63"/>
      <use xlink:href="#DejaVuSans-6f" x="54.980469"/>
      <use xlink:href="#DejaVuSans-6e" x="116.162109"/>
      <use xlink:href="#DejaVuSans-73" x="179.541016"/>
      <use xlink:href="#DejaVuSans-74" x="231.640625"/>
      <use xlink:href="#DejaVuSans-61" x="270.849609"/>
      <use xlink:href="#DejaVuSans-6e" x="332.128906"/>
      <use xlink:href="#DejaVuSans-74" x="395.507812"/>
     </g>
    </g>
    <g id="line2d_23">
     <path d="M 330.485937 85.452813 
L 340.485937 85.452813 
L 350.485937 85.452813 
" style="fill: none; stroke-dasharray: 2,3.3; stroke-dashoffset: 0; stroke: #5ec962; stroke-width: 2"/>
    </g>
    <g id="text_21">
     <!-- bivariate -->
     <g transform="translate(358.485937 88.952813)scale(0.1 -0.1)">
      <defs>
       <path id="DejaVuSans-62" d="M 3116 1747 
Q 3116 2381 2855 2742 
Q 2594 3103 2138 3103 
Q 1681 3103 1420 2742 
Q 1159 2381 1159 1747 
Q 1159 1113 1420 752 
Q 1681 391 2138 391 
Q 2594 391 2855 752 
Q 3116 1113 3116 1747 
z
M 1159 2969 
Q 1341 3281 1617 3432 
Q 1894 3584 2278 3584 
Q 2916 3584 3314 3078 
Q 3713 2572 3713 1747 
Q 3713 922 3314 415 
Q 2916 -91 2278 -91 
Q 1894 -91 1617 61 
Q 1341 213 1159 525 
L 1159 0 
L 581 0 
L 581 4863 
L 1159 4863 
L 1159 2969 
z
" transform="scale(0.015625)"/>
      </defs>
      <use xlink:href="#DejaVuSans-62"/>
      <use xlink:href="#DejaVuSans-69" x="63.476562"/>
      <use xlink:href="#DejaVuSans-76" x="91.259766"/>
      <use xlink:href="#DejaVuSans-61" x="150.439453"/>
      <use xlink:href="#DejaVuSans-72" x="211.71875"/>
      <use xlink:href="#DejaVuSans-69" x="252.832031"/>
      <use xlink:href="#DejaVuSans-61" x="280.615234"/>
      <use xlink:href="#DejaVuSans-74" x="341.894531"/>
      <use xlink:href="#DejaVuSans-65" x="381.103516"/>
     </g>
    </g>
    <g id="line2d_24">
     <path d="M 330.485937 100.130938 
L 340.485937 100.130938 
L 350.485937 100.130938 
" style="fill: none; stroke: #fde725; stroke-width: 2; stroke-linecap: square"/>
    </g>
    <g id="text_22">
     <!-- uniform -->
     <g transform="translate(358.485937 103.630938)scale(0.1 -0.1)">
      <use xlink:href="#DejaVuSans-75"/>
      <use xlink:href="#DejaVuSans-6e" x="63.378906"/>
      <use xlink:href="#DejaVuSans-69" x="126.757812"/>
      <use xlink:href="#DejaVuSans-66" x="154.541016"/>
      <use xlink:href="#DejaVuSans-6f" x="189.746094"/>
      <use xlink:href="#DejaVuSans-72" x="250.927734"/>
      <use xlink:href="#DejaVuSans-6d" x="290.291016"/>
     </g>
    </g>
   </g>
  </g>
 </g>
 <defs>
  <clipPath id="p22502c2c54">
   <rect x="53.75" y="28.32" width="358" height="145.72"/>
  </clipPath>
 </defs>
</svg>
