<?xml version="1.0" encoding="utf-8" standalone="no"?>
<!DOCTYPE svg PUBLIC "-//W3C//DTD SVG 1.1//EN"
  "http://www.w3.org/Graphics/SVG/1.1/DTD/svg11.dtd">
<svg xmlns:xlink="http://www.w3.org/1999/xlink" width="432pt" height="216pt" viewBox="0 0 432 216" xmlns="http://www.w3.org/2000/svg" version="1.1">
 <metadata>
  <rdf:RDF xmlns:dc="http://purl.org/dc/elements/1.1/" xmlns:cc="http://creativecommons.org/ns#" xmlns:rdf="http://www.w3.org/1999/02/22-rdf-syntax-ns#">
   <cc:Work>
    <dc:type rdf:resource="http://purl.org/dc/dcmitype/StillImage"/>
    <dc:date>2022-06-06T12:06:52.739618</dc:date>
    <dc:format>image/svg+xml</dc:format>
    <dc:creator>
     <cc:Agent>
      <dc:title>Matplotlib v3.5.1, https://matplotlib.org/</dc:title>
     </cc:Agent>
    </dc:creator>
   </cc:Work>
  </rdf:RDF>
 </metadata>
 <defs>
  <style type="text/css">*{stroke-linejoin: round; stroke-linecap: butt}</style>
 </defs>
 <g id="figure_1">
  <g id="patch_1">
   <path d="M 0 216 
L 432 216 
L 432 0 
L 0 0 
z
" style="fill: #ffffff"/>
  </g>
  <g id="axes_1">
   <g id="patch_2">
    <path d="M 41.15 174.04 
L 411.75 174.04 
L 411.75 28.32 
L 41.15 28.32 
z
" style="fill: #ffffff"/>
   </g>
   <g id="matplotlib.axis_1">
    <g id="xtick_1">
     <g id="line2d_1">
      <defs>
       <path id="m495ab5c490" d="M 0 0 
L 0 3.5 
" style="stroke: #000000; stroke-width: 0.8"/>
      </defs>
      <g>
       <use xlink:href="#m495ab5c490" x="41.15" y="174.04" style="stroke: #000000; stroke-width: 0.8"/>
      </g>
     </g>
     <g id="text_1">
      <!-- 0 -->
      <g transform="translate(37.96875 188.638438)scale(0.1 -0.1)">
       <defs>
        <path id="DejaVuSans-30" d="M 2034 4250 
Q 1547 4250 1301 3770 
Q 1056 3291 1056 2328 
Q 1056 1369 1301 889 
Q 1547 409 2034 409 
Q 2525 409 2770 889 
Q 3016 1369 3016 2328 
Q 3016 3291 2770 3770 
Q 2525 4250 2034 4250 
z
M 2034 4750 
Q 2819 4750 3233 4129 
Q 3647 3509 3647 2328 
Q 3647 1150 3233 529 
Q 2819 -91 2034 -91 
Q 1250 -91 836 529 
Q 422 1150 422 2328 
Q 422 3509 836 4129 
Q 1250 4750 2034 4750 
z
" transform="scale(0.015625)"/>
       </defs>
       <use xlink:href="#DejaVuSans-30"/>
      </g>
     </g>
    </g>
    <g id="xtick_2">
     <g id="line2d_2">
      <g>
       <use xlink:href="#m495ab5c490" x="87.475" y="174.04" style="stroke: #000000; stroke-width: 0.8"/>
      </g>
     </g>
     <g id="text_2">
      <!-- 50 -->
      <g transform="translate(81.1125 188.638438)scale(0.1 -0.1)">
       <defs>
        <path id="DejaVuSans-35" d="M 691 4666 
L 3169 4666 
L 3169 4134 
L 1269 4134 
L 1269 2991 
Q 1406 3038 1543 3061 
Q 1681 3084 1819 3084 
Q 2600 3084 3056 2656 
Q 3513 2228 3513 1497 
Q 3513 744 3044 326 
Q 2575 -91 1722 -91 
Q 1428 -91 1123 -41 
Q 819 9 494 109 
L 494 744 
Q 775 591 1075 516 
Q 1375 441 1709 441 
Q 2250 441 2565 725 
Q 2881 1009 2881 1497 
Q 2881 1984 2565 2268 
Q 2250 2553 1709 2553 
Q 1456 2553 1204 2497 
Q 953 2441 691 2322 
L 691 4666 
z
" transform="scale(0.015625)"/>
       </defs>
       <use xlink:href="#DejaVuSans-35"/>
       <use xlink:href="#DejaVuSans-30" x="63.623047"/>
      </g>
     </g>
    </g>
    <g id="xtick_3">
     <g id="line2d_3">
      <g>
       <use xlink:href="#m495ab5c490" x="133.8" y="174.04" style="stroke: #000000; stroke-width: 0.8"/>
      </g>
     </g>
     <g id="text_3">
      <!-- 100 -->
      <g transform="translate(124.25625 188.638438)scale(0.1 -0.1)">
       <defs>
        <path id="DejaVuSans-31" d="M 794 531 
L 1825 531 
L 1825 4091 
L 703 3866 
L 703 4441 
L 1819 4666 
L 2450 4666 
L 2450 531 
L 3481 531 
L 3481 0 
L 794 0 
L 794 531 
z
" transform="scale(0.015625)"/>
       </defs>
       <use xlink:href="#DejaVuSans-31"/>
       <use xlink:href="#DejaVuSans-30" x="63.623047"/>
       <use xlink:href="#DejaVuSans-30" x="127.246094"/>
      </g>
     </g>
    </g>
    <g id="xtick_4">
     <g id="line2d_4">
      <g>
       <use xlink:href="#m495ab5c490" x="180.125" y="174.04" style="stroke: #000000; stroke-width: 0.8"/>
      </g>
     </g>
     <g id="text_4">
      <!-- 150 -->
      <g transform="translate(170.58125 188.638438)scale(0.1 -0.1)">
       <use xlink:href="#DejaVuSans-31"/>
       <use xlink:href="#DejaVuSans-35" x="63.623047"/>
       <use xlink:href="#DejaVuSans-30" x="127.246094"/>
      </g>
     </g>
    </g>
    <g id="xtick_5">
     <g id="line2d_5">
      <g>
       <use xlink:href="#m495ab5c490" x="226.45" y="174.04" style="stroke: #000000; stroke-width: 0.8"/>
      </g>
     </g>
     <g id="text_5">
      <!-- 200 -->
      <g transform="translate(216.90625 188.638438)scale(0.1 -0.1)">
       <defs>
        <path id="DejaVuSans-32" d="M 1228 531 
L 3431 531 
L 3431 0 
L 469 0 
L 469 531 
Q 828 903 1448 1529 
Q 2069 2156 2228 2338 
Q 2531 2678 2651 2914 
Q 2772 3150 2772 3378 
Q 2772 3750 2511 3984 
Q 2250 4219 1831 4219 
Q 1534 4219 1204 4116 
Q 875 4013 500 3803 
L 500 4441 
Q 881 4594 1212 4672 
Q 1544 4750 1819 4750 
Q 2544 4750 2975 4387 
Q 3406 4025 3406 3419 
Q 3406 3131 3298 2873 
Q 3191 2616 2906 2266 
Q 2828 2175 2409 1742 
Q 1991 1309 1228 531 
z
" transform="scale(0.015625)"/>
       </defs>
       <use xlink:href="#DejaVuSans-32"/>
       <use xlink:href="#DejaVuSans-30" x="63.623047"/>
       <use xlink:href="#DejaVuSans-30" x="127.246094"/>
      </g>
     </g>
    </g>
    <g id="xtick_6">
     <g id="line2d_6">
      <g>
       <use xlink:href="#m495ab5c490" x="272.775" y="174.04" style="stroke: #000000; stroke-width: 0.8"/>
      </g>
     </g>
     <g id="text_6">
      <!-- 250 -->
      <g transform="translate(263.23125 188.638438)scale(0.1 -0.1)">
       <use xlink:href="#DejaVuSans-32"/>
       <use xlink:href="#DejaVuSans-35" x="63.623047"/>
       <use xlink:href="#DejaVuSans-30" x="127.246094"/>
      </g>
     </g>
    </g>
    <g id="xtick_7">
     <g id="line2d_7">
      <g>
       <use xlink:href="#m495ab5c490" x="319.1" y="174.04" style="stroke: #000000; stroke-width: 0.8"/>
      </g>
     </g>
     <g id="text_7">
      <!-- 300 -->
      <g transform="translate(309.55625 188.638438)scale(0.1 -0.1)">
       <defs>
        <path id="DejaVuSans-33" d="M 2597 2516 
Q 3050 2419 3304 2112 
Q 3559 1806 3559 1356 
Q 3559 666 3084 287 
Q 2609 -91 1734 -91 
Q 1441 -91 1130 -33 
Q 819 25 488 141 
L 488 750 
Q 750 597 1062 519 
Q 1375 441 1716 441 
Q 2309 441 2620 675 
Q 2931 909 2931 1356 
Q 2931 1769 2642 2001 
Q 2353 2234 1838 2234 
L 1294 2234 
L 1294 2753 
L 1863 2753 
Q 2328 2753 2575 2939 
Q 2822 3125 2822 3475 
Q 2822 3834 2567 4026 
Q 2313 4219 1838 4219 
Q 1578 4219 1281 4162 
Q 984 4106 628 3988 
L 628 4550 
Q 988 4650 1302 4700 
Q 1616 4750 1894 4750 
Q 2613 4750 3031 4423 
Q 3450 4097 3450 3541 
Q 3450 3153 3228 2886 
Q 3006 2619 2597 2516 
z
" transform="scale(0.015625)"/>
       </defs>
       <use xlink:href="#DejaVuSans-33"/>
       <use xlink:href="#DejaVuSans-30" x="63.623047"/>
       <use xlink:href="#DejaVuSans-30" x="127.246094"/>
      </g>
     </g>
    </g>
    <g id="xtick_8">
     <g id="line2d_8">
      <g>
       <use xlink:href="#m495ab5c490" x="365.425" y="174.04" style="stroke: #000000; stroke-width: 0.8"/>
      </g>
     </g>
     <g id="text_8">
      <!-- 350 -->
      <g transform="translate(355.88125 188.638438)scale(0.1 -0.1)">
       <use xlink:href="#DejaVuSans-33"/>
       <use xlink:href="#DejaVuSans-35" x="63.623047"/>
       <use xlink:href="#DejaVuSans-30" x="127.246094"/>
      </g>
     </g>
    </g>
    <g id="xtick_9">
     <g id="line2d_9">
      <g>
       <use xlink:href="#m495ab5c490" x="411.75" y="174.04" style="stroke: #000000; stroke-width: 0.8"/>
      </g>
     </g>
     <g id="text_9">
      <!-- 400 -->
      <g transform="translate(402.20625 188.638438)scale(0.1 -0.1)">
       <defs>
        <path id="DejaVuSans-34" d="M 2419 4116 
L 825 1625 
L 2419 1625 
L 2419 4116 
z
M 2253 4666 
L 3047 4666 
L 3047 1625 
L 3713 1625 
L 3713 1100 
L 3047 1100 
L 3047 0 
L 2419 0 
L 2419 1100 
L 313 1100 
L 313 1709 
L 2253 4666 
z
" transform="scale(0.015625)"/>
       </defs>
       <use xlink:href="#DejaVuSans-34"/>
       <use xlink:href="#DejaVuSans-30" x="63.623047"/>
       <use xlink:href="#DejaVuSans-30" x="127.246094"/>
      </g>
     </g>
    </g>
    <g id="text_10">
     <!-- time  -->
     <g transform="translate(213.564844 202.316563)scale(0.1 -0.1)">
      <defs>
       <path id="DejaVuSans-74" d="M 1172 4494 
L 1172 3500 
L 2356 3500 
L 2356 3053 
L 1172 3053 
L 1172 1153 
Q 1172 725 1289 603 
Q 1406 481 1766 481 
L 2356 481 
L 2356 0 
L 1766 0 
Q 1100 0 847 248 
Q 594 497 594 1153 
L 594 3053 
L 172 3053 
L 172 3500 
L 594 3500 
L 594 4494 
L 1172 4494 
z
" transform="scale(0.015625)"/>
       <path id="DejaVuSans-69" d="M 603 3500 
L 1178 3500 
L 1178 0 
L 603 0 
L 603 3500 
z
M 603 4863 
L 1178 4863 
L 1178 4134 
L 603 4134 
L 603 4863 
z
" transform="scale(0.015625)"/>
       <path id="DejaVuSans-6d" d="M 3328 2828 
Q 3544 3216 3844 3400 
Q 4144 3584 4550 3584 
Q 5097 3584 5394 3201 
Q 5691 2819 5691 2113 
L 5691 0 
L 5113 0 
L 5113 2094 
Q 5113 2597 4934 2840 
Q 4756 3084 4391 3084 
Q 3944 3084 3684 2787 
Q 3425 2491 3425 1978 
L 3425 0 
L 2847 0 
L 2847 2094 
Q 2847 2600 2669 2842 
Q 2491 3084 2119 3084 
Q 1678 3084 1418 2786 
Q 1159 2488 1159 1978 
L 1159 0 
L 581 0 
L 581 3500 
L 1159 3500 
L 1159 2956 
Q 1356 3278 1631 3431 
Q 1906 3584 2284 3584 
Q 2666 3584 2933 3390 
Q 3200 3197 3328 2828 
z
" transform="scale(0.015625)"/>
       <path id="DejaVuSans-65" d="M 3597 1894 
L 3597 1613 
L 953 1613 
Q 991 1019 1311 708 
Q 1631 397 2203 397 
Q 2534 397 2845 478 
Q 3156 559 3463 722 
L 3463 178 
Q 3153 47 2828 -22 
Q 2503 -91 2169 -91 
Q 1331 -91 842 396 
Q 353 884 353 1716 
Q 353 2575 817 3079 
Q 1281 3584 2069 3584 
Q 2775 3584 3186 3129 
Q 3597 2675 3597 1894 
z
M 3022 2063 
Q 3016 2534 2758 2815 
Q 2500 3097 2075 3097 
Q 1594 3097 1305 2825 
Q 1016 2553 972 2059 
L 3022 2063 
z
" transform="scale(0.015625)"/>
       <path id="DejaVuSans-20" transform="scale(0.015625)"/>
      </defs>
      <use xlink:href="#DejaVuSans-74"/>
      <use xlink:href="#DejaVuSans-69" x="39.208984"/>
      <use xlink:href="#DejaVuSans-6d" x="66.992188"/>
      <use xlink:href="#DejaVuSans-65" x="164.404297"/>
      <use xlink:href="#DejaVuSans-20" x="225.927734"/>
     </g>
    </g>
   </g>
   <g id="matplotlib.axis_2">
    <g id="ytick_1">
     <g id="line2d_10">
      <defs>
       <path id="mcc7b9a5aed" d="M 0 0 
L -3.5 0 
" style="stroke: #000000; stroke-width: 0.8"/>
      </defs>
      <g>
       <use xlink:href="#mcc7b9a5aed" x="41.15" y="167.416364" style="stroke: #000000; stroke-width: 0.8"/>
      </g>
     </g>
     <g id="text_11">
      <!-- 0 -->
      <g transform="translate(27.7875 171.215582)scale(0.1 -0.1)">
       <use xlink:href="#DejaVuSans-30"/>
      </g>
     </g>
    </g>
    <g id="ytick_2">
     <g id="line2d_11">
      <g>
       <use xlink:href="#mcc7b9a5aed" x="41.15" y="137.757192" style="stroke: #000000; stroke-width: 0.8"/>
      </g>
     </g>
     <g id="text_12">
      <!-- 2 -->
      <g transform="translate(27.7875 141.556411)scale(0.1 -0.1)">
       <use xlink:href="#DejaVuSans-32"/>
      </g>
     </g>
    </g>
    <g id="ytick_3">
     <g id="line2d_12">
      <g>
       <use xlink:href="#mcc7b9a5aed" x="41.15" y="108.098021" style="stroke: #000000; stroke-width: 0.8"/>
      </g>
     </g>
     <g id="text_13">
      <!-- 4 -->
      <g transform="translate(27.7875 111.89724)scale(0.1 -0.1)">
       <use xlink:href="#DejaVuSans-34"/>
      </g>
     </g>
    </g>
    <g id="ytick_4">
     <g id="line2d_13">
      <g>
       <use xlink:href="#mcc7b9a5aed" x="41.15" y="78.43885" style="stroke: #000000; stroke-width: 0.8"/>
      </g>
     </g>
     <g id="text_14">
      <!-- 6 -->
      <g transform="translate(27.7875 82.238068)scale(0.1 -0.1)">
       <defs>
        <path id="DejaVuSans-36" d="M 2113 2584 
Q 1688 2584 1439 2293 
Q 1191 2003 1191 1497 
Q 1191 994 1439 701 
Q 1688 409 2113 409 
Q 2538 409 2786 701 
Q 3034 994 3034 1497 
Q 3034 2003 2786 2293 
Q 2538 2584 2113 2584 
z
M 3366 4563 
L 3366 3988 
Q 3128 4100 2886 4159 
Q 2644 4219 2406 4219 
Q 1781 4219 1451 3797 
Q 1122 3375 1075 2522 
Q 1259 2794 1537 2939 
Q 1816 3084 2150 3084 
Q 2853 3084 3261 2657 
Q 3669 2231 3669 1497 
Q 3669 778 3244 343 
Q 2819 -91 2113 -91 
Q 1303 -91 875 529 
Q 447 1150 447 2328 
Q 447 3434 972 4092 
Q 1497 4750 2381 4750 
Q 2619 4750 2861 4703 
Q 3103 4656 3366 4563 
z
" transform="scale(0.015625)"/>
       </defs>
       <use xlink:href="#DejaVuSans-36"/>
      </g>
     </g>
    </g>
    <g id="ytick_5">
     <g id="line2d_14">
      <g>
       <use xlink:href="#mcc7b9a5aed" x="41.15" y="48.779678" style="stroke: #000000; stroke-width: 0.8"/>
      </g>
     </g>
     <g id="text_15">
      <!-- 8 -->
      <g transform="translate(27.7875 52.578897)scale(0.1 -0.1)">
       <defs>
        <path id="DejaVuSans-38" d="M 2034 2216 
Q 1584 2216 1326 1975 
Q 1069 1734 1069 1313 
Q 1069 891 1326 650 
Q 1584 409 2034 409 
Q 2484 409 2743 651 
Q 3003 894 3003 1313 
Q 3003 1734 2745 1975 
Q 2488 2216 2034 2216 
z
M 1403 2484 
Q 997 2584 770 2862 
Q 544 3141 544 3541 
Q 544 4100 942 4425 
Q 1341 4750 2034 4750 
Q 2731 4750 3128 4425 
Q 3525 4100 3525 3541 
Q 3525 3141 3298 2862 
Q 3072 2584 2669 2484 
Q 3125 2378 3379 2068 
Q 3634 1759 3634 1313 
Q 3634 634 3220 271 
Q 2806 -91 2034 -91 
Q 1263 -91 848 271 
Q 434 634 434 1313 
Q 434 1759 690 2068 
Q 947 2378 1403 2484 
z
M 1172 3481 
Q 1172 3119 1398 2916 
Q 1625 2713 2034 2713 
Q 2441 2713 2670 2916 
Q 2900 3119 2900 3481 
Q 2900 3844 2670 4047 
Q 2441 4250 2034 4250 
Q 1625 4250 1398 4047 
Q 1172 3844 1172 3481 
z
" transform="scale(0.015625)"/>
       </defs>
       <use xlink:href="#DejaVuSans-38"/>
      </g>
     </g>
    </g>
    <g id="text_16">
     <!-- $\mu(\sigma_s)$ (signal unit) -->
     <g transform="translate(21.6875 144.98)rotate(-90)scale(0.1 -0.1)">
      <defs>
       <path id="DejaVuSans-Oblique-3bc" d="M -84 -1331 
L 856 3500 
L 1434 3500 
L 1009 1322 
Q 997 1256 987 1175 
Q 978 1094 978 1013 
Q 978 722 1161 565 
Q 1344 409 1684 409 
Q 2147 409 2431 671 
Q 2716 934 2816 1459 
L 3213 3500 
L 3788 3500 
L 3266 809 
Q 3253 750 3248 706 
Q 3244 663 3244 628 
Q 3244 531 3283 486 
Q 3322 441 3406 441 
Q 3438 441 3492 456 
Q 3547 472 3647 513 
L 3559 50 
Q 3422 -19 3297 -55 
Q 3172 -91 3053 -91 
Q 2847 -91 2730 40 
Q 2613 172 2613 403 
Q 2438 153 2195 31 
Q 1953 -91 1625 -91 
Q 1334 -91 1117 43 
Q 900 178 831 397 
L 494 -1331 
L -84 -1331 
z
" transform="scale(0.015625)"/>
       <path id="DejaVuSans-28" d="M 1984 4856 
Q 1566 4138 1362 3434 
Q 1159 2731 1159 2009 
Q 1159 1288 1364 580 
Q 1569 -128 1984 -844 
L 1484 -844 
Q 1016 -109 783 600 
Q 550 1309 550 2009 
Q 550 2706 781 3412 
Q 1013 4119 1484 4856 
L 1984 4856 
z
" transform="scale(0.015625)"/>
       <path id="DejaVuSans-Oblique-3c3" d="M 2219 3044 
Q 1744 3044 1422 2700 
Q 1081 2341 969 1747 
Q 844 1119 1044 756 
Q 1241 397 1706 397 
Q 2166 397 2503 759 
Q 2844 1122 2966 1747 
Q 3075 2319 2881 2700 
Q 2700 3044 2219 3044 
z
M 2309 3503 
L 4219 3500 
L 4106 2925 
L 3463 2925 
Q 3706 2438 3575 1747 
Q 3406 888 2884 400 
Q 2359 -91 1609 -91 
Q 856 -91 525 400 
Q 194 888 363 1747 
Q 528 2609 1050 3097 
Q 1484 3503 2309 3503 
z
" transform="scale(0.015625)"/>
       <path id="DejaVuSans-Oblique-73" d="M 3200 3397 
L 3091 2853 
Q 2863 2978 2609 3040 
Q 2356 3103 2088 3103 
Q 1634 3103 1373 2948 
Q 1113 2794 1113 2528 
Q 1113 2219 1719 2053 
Q 1766 2041 1788 2034 
L 1972 1978 
Q 2547 1819 2739 1644 
Q 2931 1469 2931 1166 
Q 2931 609 2489 259 
Q 2047 -91 1331 -91 
Q 1053 -91 747 -37 
Q 441 16 72 128 
L 184 722 
Q 500 559 806 475 
Q 1113 391 1394 391 
Q 1816 391 2080 572 
Q 2344 753 2344 1031 
Q 2344 1331 1650 1516 
L 1591 1531 
L 1394 1581 
Q 956 1697 753 1886 
Q 550 2075 550 2369 
Q 550 2928 970 3256 
Q 1391 3584 2113 3584 
Q 2397 3584 2667 3537 
Q 2938 3491 3200 3397 
z
" transform="scale(0.015625)"/>
       <path id="DejaVuSans-29" d="M 513 4856 
L 1013 4856 
Q 1481 4119 1714 3412 
Q 1947 2706 1947 2009 
Q 1947 1309 1714 600 
Q 1481 -109 1013 -844 
L 513 -844 
Q 928 -128 1133 580 
Q 1338 1288 1338 2009 
Q 1338 2731 1133 3434 
Q 928 4138 513 4856 
z
" transform="scale(0.015625)"/>
       <path id="DejaVuSans-73" d="M 2834 3397 
L 2834 2853 
Q 2591 2978 2328 3040 
Q 2066 3103 1784 3103 
Q 1356 3103 1142 2972 
Q 928 2841 928 2578 
Q 928 2378 1081 2264 
Q 1234 2150 1697 2047 
L 1894 2003 
Q 2506 1872 2764 1633 
Q 3022 1394 3022 966 
Q 3022 478 2636 193 
Q 2250 -91 1575 -91 
Q 1294 -91 989 -36 
Q 684 19 347 128 
L 347 722 
Q 666 556 975 473 
Q 1284 391 1588 391 
Q 1994 391 2212 530 
Q 2431 669 2431 922 
Q 2431 1156 2273 1281 
Q 2116 1406 1581 1522 
L 1381 1569 
Q 847 1681 609 1914 
Q 372 2147 372 2553 
Q 372 3047 722 3315 
Q 1072 3584 1716 3584 
Q 2034 3584 2315 3537 
Q 2597 3491 2834 3397 
z
" transform="scale(0.015625)"/>
       <path id="DejaVuSans-67" d="M 2906 1791 
Q 2906 2416 2648 2759 
Q 2391 3103 1925 3103 
Q 1463 3103 1205 2759 
Q 947 2416 947 1791 
Q 947 1169 1205 825 
Q 1463 481 1925 481 
Q 2391 481 2648 825 
Q 2906 1169 2906 1791 
z
M 3481 434 
Q 3481 -459 3084 -895 
Q 2688 -1331 1869 -1331 
Q 1566 -1331 1297 -1286 
Q 1028 -1241 775 -1147 
L 775 -588 
Q 1028 -725 1275 -790 
Q 1522 -856 1778 -856 
Q 2344 -856 2625 -561 
Q 2906 -266 2906 331 
L 2906 616 
Q 2728 306 2450 153 
Q 2172 0 1784 0 
Q 1141 0 747 490 
Q 353 981 353 1791 
Q 353 2603 747 3093 
Q 1141 3584 1784 3584 
Q 2172 3584 2450 3431 
Q 2728 3278 2906 2969 
L 2906 3500 
L 3481 3500 
L 3481 434 
z
" transform="scale(0.015625)"/>
       <path id="DejaVuSans-6e" d="M 3513 2113 
L 3513 0 
L 2938 0 
L 2938 2094 
Q 2938 2591 2744 2837 
Q 2550 3084 2163 3084 
Q 1697 3084 1428 2787 
Q 1159 2491 1159 1978 
L 1159 0 
L 581 0 
L 581 3500 
L 1159 3500 
L 1159 2956 
Q 1366 3272 1645 3428 
Q 1925 3584 2291 3584 
Q 2894 3584 3203 3211 
Q 3513 2838 3513 2113 
z
" transform="scale(0.015625)"/>
       <path id="DejaVuSans-61" d="M 2194 1759 
Q 1497 1759 1228 1600 
Q 959 1441 959 1056 
Q 959 750 1161 570 
Q 1363 391 1709 391 
Q 2188 391 2477 730 
Q 2766 1069 2766 1631 
L 2766 1759 
L 2194 1759 
z
M 3341 1997 
L 3341 0 
L 2766 0 
L 2766 531 
Q 2569 213 2275 61 
Q 1981 -91 1556 -91 
Q 1019 -91 701 211 
Q 384 513 384 1019 
Q 384 1609 779 1909 
Q 1175 2209 1959 2209 
L 2766 2209 
L 2766 2266 
Q 2766 2663 2505 2880 
Q 2244 3097 1772 3097 
Q 1472 3097 1187 3025 
Q 903 2953 641 2809 
L 641 3341 
Q 956 3463 1253 3523 
Q 1550 3584 1831 3584 
Q 2591 3584 2966 3190 
Q 3341 2797 3341 1997 
z
" transform="scale(0.015625)"/>
       <path id="DejaVuSans-6c" d="M 603 4863 
L 1178 4863 
L 1178 0 
L 603 0 
L 603 4863 
z
" transform="scale(0.015625)"/>
       <path id="DejaVuSans-75" d="M 544 1381 
L 544 3500 
L 1119 3500 
L 1119 1403 
Q 1119 906 1312 657 
Q 1506 409 1894 409 
Q 2359 409 2629 706 
Q 2900 1003 2900 1516 
L 2900 3500 
L 3475 3500 
L 3475 0 
L 2900 0 
L 2900 538 
Q 2691 219 2414 64 
Q 2138 -91 1772 -91 
Q 1169 -91 856 284 
Q 544 659 544 1381 
z
M 1991 3584 
L 1991 3584 
z
" transform="scale(0.015625)"/>
      </defs>
      <use xlink:href="#DejaVuSans-Oblique-3bc" transform="translate(0 0.015625)"/>
      <use xlink:href="#DejaVuSans-28" transform="translate(63.623047 0.015625)"/>
      <use xlink:href="#DejaVuSans-Oblique-3c3" transform="translate(102.636719 0.015625)"/>
      <use xlink:href="#DejaVuSans-Oblique-73" transform="translate(166.015625 -16.390625)scale(0.7)"/>
      <use xlink:href="#DejaVuSans-29" transform="translate(205.219727 0.015625)"/>
      <use xlink:href="#DejaVuSans-20" transform="translate(244.233398 0.015625)"/>
      <use xlink:href="#DejaVuSans-28" transform="translate(276.020508 0.015625)"/>
      <use xlink:href="#DejaVuSans-73" transform="translate(315.03418 0.015625)"/>
      <use xlink:href="#DejaVuSans-69" transform="translate(367.133789 0.015625)"/>
      <use xlink:href="#DejaVuSans-67" transform="translate(394.916992 0.015625)"/>
      <use xlink:href="#DejaVuSans-6e" transform="translate(458.393555 0.015625)"/>
      <use xlink:href="#DejaVuSans-61" transform="translate(521.772461 0.015625)"/>
      <use xlink:href="#DejaVuSans-6c" transform="translate(583.051758 0.015625)"/>
      <use xlink:href="#DejaVuSans-20" transform="translate(610.834961 0.015625)"/>
      <use xlink:href="#DejaVuSans-75" transform="translate(642.62207 0.015625)"/>
      <use xlink:href="#DejaVuSans-6e" transform="translate(706.000977 0.015625)"/>
      <use xlink:href="#DejaVuSans-69" transform="translate(769.379883 0.015625)"/>
      <use xlink:href="#DejaVuSans-74" transform="translate(797.163086 0.015625)"/>
      <use xlink:href="#DejaVuSans-29" transform="translate(836.37207 0.015625)"/>
     </g>
    </g>
   </g>
   <g id="line2d_15">
    <path d="M 48.713265 147.495257 
L 56.276531 141.179487 
L 63.839796 133.961813 
L 71.403061 127.281301 
L 78.966327 125.312905 
L 86.529592 124.946168 
L 94.092857 124.847932 
L 101.656122 124.769267 
L 109.219388 124.713807 
L 116.782653 124.651993 
L 124.345918 124.615054 
L 131.909184 124.597711 
L 139.472449 124.573409 
L 147.035714 124.544904 
L 154.59898 124.523669 
L 162.162245 124.514001 
L 169.72551 124.509137 
L 177.288776 124.501339 
L 184.852041 124.497275 
L 192.415306 124.485495 
L 199.978571 124.482835 
L 207.541837 124.482417 
L 215.105102 124.481258 
L 222.668367 124.477387 
L 230.231633 124.475524 
L 237.794898 124.471819 
L 245.358163 124.469304 
L 252.921429 124.46808 
L 260.484694 124.464928 
L 268.047959 124.463642 
L 275.611224 124.459724 
L 283.17449 124.459621 
L 290.737755 124.460839 
L 298.30102 124.460278 
L 305.864286 124.458687 
L 313.427551 124.458511 
L 320.990816 124.458969 
L 328.554082 124.457134 
L 336.117347 124.456601 
L 343.680612 124.456171 
L 351.243878 124.45528 
L 358.807143 124.454848 
L 366.370408 124.455152 
L 373.933673 124.454584 
L 381.496939 124.454584 
L 389.060204 124.454584 
L 396.623469 124.454584 
L 404.186735 124.454584 
L 411.75 124.454889 
" clip-path="url(#p5f7740c97b)" style="fill: none; stroke: #440154; stroke-width: 2; stroke-linecap: square"/>
   </g>
   <g id="line2d_16">
    <path d="M 48.713265 167.416364 
L 56.276531 167.416364 
L 63.839796 167.416364 
L 71.403061 167.416364 
L 78.966327 167.416364 
L 86.529592 167.416364 
L 94.092857 167.416364 
L 101.656122 167.416364 
L 109.219388 167.416364 
L 116.782653 167.416364 
L 124.345918 167.416364 
L 131.909184 167.416364 
L 139.472449 108.89053 
L 147.035714 39.301391 
L 154.59898 36.243984 
L 162.162245 36.064293 
L 169.72551 36.066587 
L 177.288776 36.068486 
L 184.852041 36.069622 
L 192.415306 36.070856 
L 199.978571 36.071585 
L 207.541837 36.072095 
L 215.105102 36.071968 
L 222.668367 36.071918 
L 230.231633 148.903102 
L 237.794898 149.247146 
L 245.358163 146.970977 
L 252.921429 141.496151 
L 260.484694 137.056323 
L 268.047959 135.805974 
L 275.611224 135.631294 
L 283.17449 135.549737 
L 290.737755 135.477968 
L 298.30102 135.536913 
L 305.864286 135.480926 
L 313.427551 135.441291 
L 320.990816 133.649835 
L 328.554082 135.107046 
L 336.117347 130.24768 
L 343.680612 126.465274 
L 351.243878 125.221398 
L 358.807143 125.015539 
L 366.370408 124.933778 
L 373.933673 124.828487 
L 381.496939 124.776275 
L 389.060204 124.712903 
L 396.623469 124.669323 
L 404.186735 124.624042 
L 411.75 124.608169 
" clip-path="url(#p5f7740c97b)" style="fill: none; stroke-dasharray: 7.4,3.2; stroke-dashoffset: 0; stroke: #3b528b; stroke-width: 2"/>
   </g>
   <g id="line2d_17">
    <path d="M 48.713265 167.416364 
L 56.276531 167.416364 
L 63.839796 167.416364 
L 71.403061 167.416364 
L 78.966327 167.416364 
L 86.529592 167.416364 
L 94.092857 167.416364 
L 101.656122 167.416364 
L 109.219388 167.416364 
L 116.782653 167.416364 
L 124.345918 167.416364 
L 131.909184 167.416364 
L 139.472449 167.416364 
L 147.035714 167.416364 
L 154.59898 167.416364 
L 162.162245 167.416364 
L 169.72551 167.416364 
L 177.288776 167.416364 
L 184.852041 167.416364 
L 192.415306 167.416364 
L 199.978571 167.416364 
L 207.541837 167.416364 
L 215.105102 167.416364 
L 222.668367 167.416364 
L 230.231633 167.416364 
L 237.794898 167.416364 
L 245.358163 167.416364 
L 252.921429 167.416364 
L 260.484694 167.416364 
L 268.047959 167.416364 
L 275.611224 167.416364 
L 283.17449 167.416364 
L 290.737755 167.416364 
L 298.30102 167.416364 
L 305.864286 167.416364 
L 313.427551 167.416364 
L 320.990816 167.416364 
L 328.554082 167.416364 
L 336.117347 167.416364 
L 343.680612 167.416364 
L 351.243878 167.416364 
L 358.807143 167.416364 
L 366.370408 167.416364 
L 373.933673 167.416364 
L 381.496939 167.416364 
L 389.060204 167.416364 
L 396.623469 167.416364 
L 404.186735 167.416364 
L 411.75 167.416364 
" clip-path="url(#p5f7740c97b)" style="fill: none; stroke-dasharray: 12.8,3.2,2,3.2; stroke-dashoffset: 0; stroke: #21918c; stroke-width: 2"/>
   </g>
   <g id="line2d_18">
    <path d="M 48.713265 151.503815 
L 56.276531 148.59114 
L 63.839796 144.144078 
L 71.403061 138.232107 
L 78.966327 136.032362 
L 86.529592 135.60507 
L 94.092857 135.458429 
L 101.656122 135.341317 
L 109.219388 135.24436 
L 116.782653 135.167577 
L 124.345918 135.126741 
L 131.909184 135.068517 
L 139.472449 135.043927 
L 147.035714 135.022388 
L 154.59898 135.007538 
L 162.162245 134.97863 
L 169.72551 134.96198 
L 177.288776 134.950958 
L 184.852041 134.94945 
L 192.415306 134.93493 
L 199.978571 134.933427 
L 207.541837 134.925722 
L 215.105102 134.922851 
L 222.668367 134.917402 
L 230.231633 134.912966 
L 237.794898 134.909196 
L 245.358163 134.907823 
L 252.921429 134.902058 
L 260.484694 134.90035 
L 268.047959 134.898911 
L 275.611224 134.897179 
L 283.17449 134.896379 
L 290.737755 134.895142 
L 298.30102 134.893193 
L 305.864286 134.892269 
L 313.427551 134.891637 
L 320.990816 134.891484 
L 328.554082 134.890287 
L 336.117347 134.889399 
L 343.680612 134.888732 
L 351.243878 134.889387 
L 358.807143 134.88941 
L 366.370408 134.888781 
L 373.933673 134.890326 
L 381.496939 134.889608 
L 389.060204 134.889759 
L 396.623469 134.889385 
L 404.186735 134.889645 
L 411.75 134.889619 
" clip-path="url(#p5f7740c97b)" style="fill: none; stroke-dasharray: 2,3.3; stroke-dashoffset: 0; stroke: #5ec962; stroke-width: 2"/>
   </g>
   <g id="line2d_19">
    <path d="M 48.713265 68.846771 
L 56.276531 38.832561 
L 63.839796 35.000957 
L 71.403061 34.944369 
L 78.966327 34.944331 
L 86.529592 34.944292 
L 94.092857 34.944063 
L 101.656122 34.943892 
L 109.219388 34.943906 
L 116.782653 34.943737 
L 124.345918 34.943642 
L 131.909184 34.943668 
L 139.472449 34.943665 
L 147.035714 34.943665 
L 154.59898 34.943665 
L 162.162245 34.943665 
L 169.72551 34.943665 
L 177.288776 34.943665 
L 184.852041 34.943665 
L 192.415306 34.943665 
L 199.978571 34.943665 
L 207.541837 34.943683 
L 215.105102 34.943683 
L 222.668367 34.943651 
L 230.231633 34.943636 
L 237.794898 34.943636 
L 245.358163 34.943636 
L 252.921429 34.943636 
L 260.484694 34.943636 
L 268.047959 34.943636 
L 275.611224 34.943636 
L 283.17449 34.943636 
L 290.737755 34.943636 
L 298.30102 34.943636 
L 305.864286 34.943636 
L 313.427551 34.943636 
L 320.990816 34.943636 
L 328.554082 34.943636 
L 336.117347 34.943636 
L 343.680612 34.943636 
L 351.243878 34.943636 
L 358.807143 34.943636 
L 366.370408 34.943636 
L 373.933673 34.943636 
L 381.496939 34.943636 
L 389.060204 34.943636 
L 396.623469 34.943636 
L 404.186735 34.943636 
L 411.75 34.943636 
" clip-path="url(#p5f7740c97b)" style="fill: none; stroke: #fde725; stroke-width: 2; stroke-linecap: square"/>
   </g>
   <g id="patch_3">
    <path d="M 41.15 174.04 
L 41.15 28.32 
" style="fill: none; stroke: #000000; stroke-width: 0.8; stroke-linejoin: miter; stroke-linecap: square"/>
   </g>
   <g id="patch_4">
    <path d="M 411.75 174.04 
L 411.75 28.32 
" style="fill: none; stroke: #000000; stroke-width: 0.8; stroke-linejoin: miter; stroke-linecap: square"/>
   </g>
   <g id="patch_5">
    <path d="M 41.15 174.04 
L 411.75 174.04 
" style="fill: none; stroke: #000000; stroke-width: 0.8; stroke-linejoin: miter; stroke-linecap: square"/>
   </g>
   <g id="patch_6">
    <path d="M 41.15 28.32 
L 411.75 28.32 
" style="fill: none; stroke: #000000; stroke-width: 0.8; stroke-linejoin: miter; stroke-linecap: square"/>
   </g>
   <g id="text_17">
    <!-- $\mu(\sigma_s)$ for diverse phenomena when scenario=pgrid -->
    <g transform="translate(73.99 22.32)scale(0.12 -0.12)">
     <defs>
      <path id="DejaVuSans-66" d="M 2375 4863 
L 2375 4384 
L 1825 4384 
Q 1516 4384 1395 4259 
Q 1275 4134 1275 3809 
L 1275 3500 
L 2222 3500 
L 2222 3053 
L 1275 3053 
L 1275 0 
L 697 0 
L 697 3053 
L 147 3053 
L 147 3500 
L 697 3500 
L 697 3744 
Q 697 4328 969 4595 
Q 1241 4863 1831 4863 
L 2375 4863 
z
" transform="scale(0.015625)"/>
      <path id="DejaVuSans-6f" d="M 1959 3097 
Q 1497 3097 1228 2736 
Q 959 2375 959 1747 
Q 959 1119 1226 758 
Q 1494 397 1959 397 
Q 2419 397 2687 759 
Q 2956 1122 2956 1747 
Q 2956 2369 2687 2733 
Q 2419 3097 1959 3097 
z
M 1959 3584 
Q 2709 3584 3137 3096 
Q 3566 2609 3566 1747 
Q 3566 888 3137 398 
Q 2709 -91 1959 -91 
Q 1206 -91 779 398 
Q 353 888 353 1747 
Q 353 2609 779 3096 
Q 1206 3584 1959 3584 
z
" transform="scale(0.015625)"/>
      <path id="DejaVuSans-72" d="M 2631 2963 
Q 2534 3019 2420 3045 
Q 2306 3072 2169 3072 
Q 1681 3072 1420 2755 
Q 1159 2438 1159 1844 
L 1159 0 
L 581 0 
L 581 3500 
L 1159 3500 
L 1159 2956 
Q 1341 3275 1631 3429 
Q 1922 3584 2338 3584 
Q 2397 3584 2469 3576 
Q 2541 3569 2628 3553 
L 2631 2963 
z
" transform="scale(0.015625)"/>
      <path id="DejaVuSans-64" d="M 2906 2969 
L 2906 4863 
L 3481 4863 
L 3481 0 
L 2906 0 
L 2906 525 
Q 2725 213 2448 61 
Q 2172 -91 1784 -91 
Q 1150 -91 751 415 
Q 353 922 353 1747 
Q 353 2572 751 3078 
Q 1150 3584 1784 3584 
Q 2172 3584 2448 3432 
Q 2725 3281 2906 2969 
z
M 947 1747 
Q 947 1113 1208 752 
Q 1469 391 1925 391 
Q 2381 391 2643 752 
Q 2906 1113 2906 1747 
Q 2906 2381 2643 2742 
Q 2381 3103 1925 3103 
Q 1469 3103 1208 2742 
Q 947 2381 947 1747 
z
" transform="scale(0.015625)"/>
      <path id="DejaVuSans-76" d="M 191 3500 
L 800 3500 
L 1894 563 
L 2988 3500 
L 3597 3500 
L 2284 0 
L 1503 0 
L 191 3500 
z
" transform="scale(0.015625)"/>
      <path id="DejaVuSans-70" d="M 1159 525 
L 1159 -1331 
L 581 -1331 
L 581 3500 
L 1159 3500 
L 1159 2969 
Q 1341 3281 1617 3432 
Q 1894 3584 2278 3584 
Q 2916 3584 3314 3078 
Q 3713 2572 3713 1747 
Q 3713 922 3314 415 
Q 2916 -91 2278 -91 
Q 1894 -91 1617 61 
Q 1341 213 1159 525 
z
M 3116 1747 
Q 3116 2381 2855 2742 
Q 2594 3103 2138 3103 
Q 1681 3103 1420 2742 
Q 1159 2381 1159 1747 
Q 1159 1113 1420 752 
Q 1681 391 2138 391 
Q 2594 391 2855 752 
Q 3116 1113 3116 1747 
z
" transform="scale(0.015625)"/>
      <path id="DejaVuSans-68" d="M 3513 2113 
L 3513 0 
L 2938 0 
L 2938 2094 
Q 2938 2591 2744 2837 
Q 2550 3084 2163 3084 
Q 1697 3084 1428 2787 
Q 1159 2491 1159 1978 
L 1159 0 
L 581 0 
L 581 4863 
L 1159 4863 
L 1159 2956 
Q 1366 3272 1645 3428 
Q 1925 3584 2291 3584 
Q 2894 3584 3203 3211 
Q 3513 2838 3513 2113 
z
" transform="scale(0.015625)"/>
      <path id="DejaVuSans-77" d="M 269 3500 
L 844 3500 
L 1563 769 
L 2278 3500 
L 2956 3500 
L 3675 769 
L 4391 3500 
L 4966 3500 
L 4050 0 
L 3372 0 
L 2619 2869 
L 1863 0 
L 1184 0 
L 269 3500 
z
" transform="scale(0.015625)"/>
      <path id="DejaVuSans-63" d="M 3122 3366 
L 3122 2828 
Q 2878 2963 2633 3030 
Q 2388 3097 2138 3097 
Q 1578 3097 1268 2742 
Q 959 2388 959 1747 
Q 959 1106 1268 751 
Q 1578 397 2138 397 
Q 2388 397 2633 464 
Q 2878 531 3122 666 
L 3122 134 
Q 2881 22 2623 -34 
Q 2366 -91 2075 -91 
Q 1284 -91 818 406 
Q 353 903 353 1747 
Q 353 2603 823 3093 
Q 1294 3584 2113 3584 
Q 2378 3584 2631 3529 
Q 2884 3475 3122 3366 
z
" transform="scale(0.015625)"/>
      <path id="DejaVuSans-3d" d="M 678 2906 
L 4684 2906 
L 4684 2381 
L 678 2381 
L 678 2906 
z
M 678 1631 
L 4684 1631 
L 4684 1100 
L 678 1100 
L 678 1631 
z
" transform="scale(0.015625)"/>
     </defs>
     <use xlink:href="#DejaVuSans-Oblique-3bc" transform="translate(0 0.015625)"/>
     <use xlink:href="#DejaVuSans-28" transform="translate(63.623047 0.015625)"/>
     <use xlink:href="#DejaVuSans-Oblique-3c3" transform="translate(102.636719 0.015625)"/>
     <use xlink:href="#DejaVuSans-Oblique-73" transform="translate(166.015625 -16.390625)scale(0.7)"/>
     <use xlink:href="#DejaVuSans-29" transform="translate(205.219727 0.015625)"/>
     <use xlink:href="#DejaVuSans-20" transform="translate(244.233398 0.015625)"/>
     <use xlink:href="#DejaVuSans-66" transform="translate(276.020508 0.015625)"/>
     <use xlink:href="#DejaVuSans-6f" transform="translate(311.225586 0.015625)"/>
     <use xlink:href="#DejaVuSans-72" transform="translate(372.407227 0.015625)"/>
     <use xlink:href="#DejaVuSans-20" transform="translate(413.520508 0.015625)"/>
     <use xlink:href="#DejaVuSans-64" transform="translate(445.307617 0.015625)"/>
     <use xlink:href="#DejaVuSans-69" transform="translate(508.78418 0.015625)"/>
     <use xlink:href="#DejaVuSans-76" transform="translate(536.567383 0.015625)"/>
     <use xlink:href="#DejaVuSans-65" transform="translate(595.74707 0.015625)"/>
     <use xlink:href="#DejaVuSans-72" transform="translate(657.270508 0.015625)"/>
     <use xlink:href="#DejaVuSans-73" transform="translate(698.383789 0.015625)"/>
     <use xlink:href="#DejaVuSans-65" transform="translate(750.483398 0.015625)"/>
     <use xlink:href="#DejaVuSans-20" transform="translate(812.006836 0.015625)"/>
     <use xlink:href="#DejaVuSans-70" transform="translate(843.793945 0.015625)"/>
     <use xlink:href="#DejaVuSans-68" transform="translate(907.270508 0.015625)"/>
     <use xlink:href="#DejaVuSans-65" transform="translate(970.649414 0.015625)"/>
     <use xlink:href="#DejaVuSans-6e" transform="translate(1032.172852 0.015625)"/>
     <use xlink:href="#DejaVuSans-6f" transform="translate(1095.551758 0.015625)"/>
     <use xlink:href="#DejaVuSans-6d" transform="translate(1156.733398 0.015625)"/>
     <use xlink:href="#DejaVuSans-65" transform="translate(1254.145508 0.015625)"/>
     <use xlink:href="#DejaVuSans-6e" transform="translate(1315.668945 0.015625)"/>
     <use xlink:href="#DejaVuSans-61" transform="translate(1379.047852 0.015625)"/>
     <use xlink:href="#DejaVuSans-20" transform="translate(1440.327148 0.015625)"/>
     <use xlink:href="#DejaVuSans-77" transform="translate(1472.114258 0.015625)"/>
     <use xlink:href="#DejaVuSans-68" transform="translate(1553.901367 0.015625)"/>
     <use xlink:href="#DejaVuSans-65" transform="translate(1617.280273 0.015625)"/>
     <use xlink:href="#DejaVuSans-6e" transform="translate(1678.803711 0.015625)"/>
     <use xlink:href="#DejaVuSans-20" transform="translate(1742.182617 0.015625)"/>
     <use xlink:href="#DejaVuSans-73" transform="translate(1773.969727 0.015625)"/>
     <use xlink:href="#DejaVuSans-63" transform="translate(1826.069336 0.015625)"/>
     <use xlink:href="#DejaVuSans-65" transform="translate(1881.049805 0.015625)"/>
     <use xlink:href="#DejaVuSans-6e" transform="translate(1942.573242 0.015625)"/>
     <use xlink:href="#DejaVuSans-61" transform="translate(2005.952148 0.015625)"/>
     <use xlink:href="#DejaVuSans-72" transform="translate(2067.231445 0.015625)"/>
     <use xlink:href="#DejaVuSans-69" transform="translate(2108.344727 0.015625)"/>
     <use xlink:href="#DejaVuSans-6f" transform="translate(2136.12793 0.015625)"/>
     <use xlink:href="#DejaVuSans-3d" transform="translate(2197.30957 0.015625)"/>
     <use xlink:href="#DejaVuSans-70" transform="translate(2281.098633 0.015625)"/>
     <use xlink:href="#DejaVuSans-67" transform="translate(2344.575195 0.015625)"/>
     <use xlink:href="#DejaVuSans-72" transform="translate(2408.051758 0.015625)"/>
     <use xlink:href="#DejaVuSans-69" transform="translate(2449.165039 0.015625)"/>
     <use xlink:href="#DejaVuSans-64" transform="translate(2476.948242 0.015625)"/>
    </g>
   </g>
   <g id="legend_1">
    <g id="patch_7">
     <path d="M 328.485937 109.710625 
L 404.75 109.710625 
Q 406.75 109.710625 406.75 107.710625 
L 406.75 35.32 
Q 406.75 33.32 404.75 33.32 
L 328.485937 33.32 
Q 326.485937 33.32 326.485937 35.32 
L 326.485937 107.710625 
Q 326.485937 109.710625 328.485937 109.710625 
z
" style="fill: #ffffff; opacity: 0.8; stroke: #cccccc; stroke-linejoin: miter"/>
    </g>
    <g id="line2d_20">
     <path d="M 330.485937 41.418438 
L 340.485937 41.418438 
L 350.485937 41.418438 
" style="fill: none; stroke: #440154; stroke-width: 2; stroke-linecap: square"/>
    </g>
    <g id="text_18">
     <!-- multi -->
     <g transform="translate(358.485937 44.918438)scale(0.1 -0.1)">
      <use xlink:href="#DejaVuSans-6d"/>
      <use xlink:href="#DejaVuSans-75" x="97.412109"/>
      <use xlink:href="#DejaVuSans-6c" x="160.791016"/>
      <use xlink:href="#DejaVuSans-74" x="188.574219"/>
      <use xlink:href="#DejaVuSans-69" x="227.783203"/>
     </g>
    </g>
    <g id="line2d_21">
     <path d="M 330.485937 56.096563 
L 340.485937 56.096563 
L 350.485937 56.096563 
" style="fill: none; stroke-dasharray: 7.4,3.2; stroke-dashoffset: 0; stroke: #3b528b; stroke-width: 2"/>
    </g>
    <g id="text_19">
     <!-- dynamic -->
     <g transform="translate(358.485937 59.596563)scale(0.1 -0.1)">
      <defs>
       <path id="DejaVuSans-79" d="M 2059 -325 
Q 1816 -950 1584 -1140 
Q 1353 -1331 966 -1331 
L 506 -1331 
L 506 -850 
L 844 -850 
Q 1081 -850 1212 -737 
Q 1344 -625 1503 -206 
L 1606 56 
L 191 3500 
L 800 3500 
L 1894 763 
L 2988 3500 
L 3597 3500 
L 2059 -325 
z
" transform="scale(0.015625)"/>
      </defs>
      <use xlink:href="#DejaVuSans-64"/>
      <use xlink:href="#DejaVuSans-79" x="63.476562"/>
      <use xlink:href="#DejaVuSans-6e" x="122.65625"/>
      <use xlink:href="#DejaVuSans-61" x="186.035156"/>
      <use xlink:href="#DejaVuSans-6d" x="247.314453"/>
      <use xlink:href="#DejaVuSans-69" x="344.726562"/>
      <use xlink:href="#DejaVuSans-63" x="372.509766"/>
     </g>
    </g>
    <g id="line2d_22">
     <path d="M 330.485937 70.774688 
L 340.485937 70.774688 
L 350.485937 70.774688 
" style="fill: none; stroke-dasharray: 12.8,3.2,2,3.2; stroke-dashoffset: 0; stroke: #21918c; stroke-width: 2"/>
    </g>
    <g id="text_20">
     <!-- constant -->
     <g transform="translate(358.485937 74.274688)scale(0.1 -0.1)">
      <use xlink:href="#DejaVuSans-63"/>
      <use xlink:href="#DejaVuSans-6f" x="54.980469"/>
      <use xlink:href="#DejaVuSans-6e" x="116.162109"/>
      <use xlink:href="#DejaVuSans-73" x="179.541016"/>
      <use xlink:href="#DejaVuSans-74" x="231.640625"/>
      <use xlink:href="#DejaVuSans-61" x="270.849609"/>
      <use xlink:href="#DejaVuSans-6e" x="332.128906"/>
      <use xlink:href="#DejaVuSans-74" x="395.507812"/>
     </g>
    </g>
    <g id="line2d_23">
     <path d="M 330.485937 85.452813 
L 340.485937 85.452813 
L 350.485937 85.452813 
" style="fill: none; stroke-dasharray: 2,3.3; stroke-dashoffset: 0; stroke: #5ec962; stroke-width: 2"/>
    </g>
    <g id="text_21">
     <!-- bivariate -->
     <g transform="translate(358.485937 88.952813)scale(0.1 -0.1)">
      <defs>
       <path id="DejaVuSans-62" d="M 3116 1747 
Q 3116 2381 2855 2742 
Q 2594 3103 2138 3103 
Q 1681 3103 1420 2742 
Q 1159 2381 1159 1747 
Q 1159 1113 1420 752 
Q 1681 391 2138 391 
Q 2594 391 2855 752 
Q 3116 1113 3116 1747 
z
M 1159 2969 
Q 1341 3281 1617 3432 
Q 1894 3584 2278 3584 
Q 2916 3584 3314 3078 
Q 3713 2572 3713 1747 
Q 3713 922 3314 415 
Q 2916 -91 2278 -91 
Q 1894 -91 1617 61 
Q 1341 213 1159 525 
L 1159 0 
L 581 0 
L 581 4863 
L 1159 4863 
L 1159 2969 
z
" transform="scale(0.015625)"/>
      </defs>
      <use xlink:href="#DejaVuSans-62"/>
      <use xlink:href="#DejaVuSans-69" x="63.476562"/>
      <use xlink:href="#DejaVuSans-76" x="91.259766"/>
      <use xlink:href="#DejaVuSans-61" x="150.439453"/>
      <use xlink:href="#DejaVuSans-72" x="211.71875"/>
      <use xlink:href="#DejaVuSans-69" x="252.832031"/>
      <use xlink:href="#DejaVuSans-61" x="280.615234"/>
      <use xlink:href="#DejaVuSans-74" x="341.894531"/>
      <use xlink:href="#DejaVuSans-65" x="381.103516"/>
     </g>
    </g>
    <g id="line2d_24">
     <path d="M 330.485937 100.130938 
L 340.485937 100.130938 
L 350.485937 100.130938 
" style="fill: none; stroke: #fde725; stroke-width: 2; stroke-linecap: square"/>
    </g>
    <g id="text_22">
     <!-- uniform -->
     <g transform="translate(358.485937 103.630938)scale(0.1 -0.1)">
      <use xlink:href="#DejaVuSans-75"/>
      <use xlink:href="#DejaVuSans-6e" x="63.378906"/>
      <use xlink:href="#DejaVuSans-69" x="126.757812"/>
      <use xlink:href="#DejaVuSans-66" x="154.541016"/>
      <use xlink:href="#DejaVuSans-6f" x="189.746094"/>
      <use xlink:href="#DejaVuSans-72" x="250.927734"/>
      <use xlink:href="#DejaVuSans-6d" x="290.291016"/>
     </g>
    </g>
   </g>
  </g>
 </g>
 <defs>
  <clipPath id="p5f7740c97b">
   <rect x="41.15" y="28.32" width="370.6" height="145.72"/>
  </clipPath>
 </defs>
</svg>
