<?xml version="1.0" encoding="utf-8" standalone="no"?>
<!DOCTYPE svg PUBLIC "-//W3C//DTD SVG 1.1//EN"
  "http://www.w3.org/Graphics/SVG/1.1/DTD/svg11.dtd">
<svg xmlns:xlink="http://www.w3.org/1999/xlink" width="432pt" height="216pt" viewBox="0 0 432 216" xmlns="http://www.w3.org/2000/svg" version="1.1">
 <metadata>
  <rdf:RDF xmlns:dc="http://purl.org/dc/elements/1.1/" xmlns:cc="http://creativecommons.org/ns#" xmlns:rdf="http://www.w3.org/1999/02/22-rdf-syntax-ns#">
   <cc:Work>
    <dc:type rdf:resource="http://purl.org/dc/dcmitype/StillImage"/>
    <dc:date>2022-06-06T12:06:56.596797</dc:date>
    <dc:format>image/svg+xml</dc:format>
    <dc:creator>
     <cc:Agent>
      <dc:title>Matplotlib v3.5.1, https://matplotlib.org/</dc:title>
     </cc:Agent>
    </dc:creator>
   </cc:Work>
  </rdf:RDF>
 </metadata>
 <defs>
  <style type="text/css">*{stroke-linejoin: round; stroke-linecap: butt}</style>
 </defs>
 <g id="figure_1">
  <g id="patch_1">
   <path d="M 0 216 
L 432 216 
L 432 0 
L 0 0 
z
" style="fill: #ffffff"/>
  </g>
  <g id="axes_1">
   <g id="patch_2">
    <path d="M 47.45 174.04 
L 411.75 174.04 
L 411.75 28.32 
L 47.45 28.32 
z
" style="fill: #ffffff"/>
   </g>
   <g id="matplotlib.axis_1">
    <g id="xtick_1">
     <g id="line2d_1">
      <defs>
       <path id="m47e83069fb" d="M 0 0 
L 0 3.5 
" style="stroke: #000000; stroke-width: 0.8"/>
      </defs>
      <g>
       <use xlink:href="#m47e83069fb" x="47.45" y="174.04" style="stroke: #000000; stroke-width: 0.8"/>
      </g>
     </g>
     <g id="text_1">
      <!-- 0 -->
      <g transform="translate(44.26875 188.638438)scale(0.1 -0.1)">
       <defs>
        <path id="DejaVuSans-30" d="M 2034 4250 
Q 1547 4250 1301 3770 
Q 1056 3291 1056 2328 
Q 1056 1369 1301 889 
Q 1547 409 2034 409 
Q 2525 409 2770 889 
Q 3016 1369 3016 2328 
Q 3016 3291 2770 3770 
Q 2525 4250 2034 4250 
z
M 2034 4750 
Q 2819 4750 3233 4129 
Q 3647 3509 3647 2328 
Q 3647 1150 3233 529 
Q 2819 -91 2034 -91 
Q 1250 -91 836 529 
Q 422 1150 422 2328 
Q 422 3509 836 4129 
Q 1250 4750 2034 4750 
z
" transform="scale(0.015625)"/>
       </defs>
       <use xlink:href="#DejaVuSans-30"/>
      </g>
     </g>
    </g>
    <g id="xtick_2">
     <g id="line2d_2">
      <g>
       <use xlink:href="#m47e83069fb" x="92.9875" y="174.04" style="stroke: #000000; stroke-width: 0.8"/>
      </g>
     </g>
     <g id="text_2">
      <!-- 50 -->
      <g transform="translate(86.625 188.638438)scale(0.1 -0.1)">
       <defs>
        <path id="DejaVuSans-35" d="M 691 4666 
L 3169 4666 
L 3169 4134 
L 1269 4134 
L 1269 2991 
Q 1406 3038 1543 3061 
Q 1681 3084 1819 3084 
Q 2600 3084 3056 2656 
Q 3513 2228 3513 1497 
Q 3513 744 3044 326 
Q 2575 -91 1722 -91 
Q 1428 -91 1123 -41 
Q 819 9 494 109 
L 494 744 
Q 775 591 1075 516 
Q 1375 441 1709 441 
Q 2250 441 2565 725 
Q 2881 1009 2881 1497 
Q 2881 1984 2565 2268 
Q 2250 2553 1709 2553 
Q 1456 2553 1204 2497 
Q 953 2441 691 2322 
L 691 4666 
z
" transform="scale(0.015625)"/>
       </defs>
       <use xlink:href="#DejaVuSans-35"/>
       <use xlink:href="#DejaVuSans-30" x="63.623047"/>
      </g>
     </g>
    </g>
    <g id="xtick_3">
     <g id="line2d_3">
      <g>
       <use xlink:href="#m47e83069fb" x="138.525" y="174.04" style="stroke: #000000; stroke-width: 0.8"/>
      </g>
     </g>
     <g id="text_3">
      <!-- 100 -->
      <g transform="translate(128.98125 188.638438)scale(0.1 -0.1)">
       <defs>
        <path id="DejaVuSans-31" d="M 794 531 
L 1825 531 
L 1825 4091 
L 703 3866 
L 703 4441 
L 1819 4666 
L 2450 4666 
L 2450 531 
L 3481 531 
L 3481 0 
L 794 0 
L 794 531 
z
" transform="scale(0.015625)"/>
       </defs>
       <use xlink:href="#DejaVuSans-31"/>
       <use xlink:href="#DejaVuSans-30" x="63.623047"/>
       <use xlink:href="#DejaVuSans-30" x="127.246094"/>
      </g>
     </g>
    </g>
    <g id="xtick_4">
     <g id="line2d_4">
      <g>
       <use xlink:href="#m47e83069fb" x="184.0625" y="174.04" style="stroke: #000000; stroke-width: 0.8"/>
      </g>
     </g>
     <g id="text_4">
      <!-- 150 -->
      <g transform="translate(174.51875 188.638438)scale(0.1 -0.1)">
       <use xlink:href="#DejaVuSans-31"/>
       <use xlink:href="#DejaVuSans-35" x="63.623047"/>
       <use xlink:href="#DejaVuSans-30" x="127.246094"/>
      </g>
     </g>
    </g>
    <g id="xtick_5">
     <g id="line2d_5">
      <g>
       <use xlink:href="#m47e83069fb" x="229.6" y="174.04" style="stroke: #000000; stroke-width: 0.8"/>
      </g>
     </g>
     <g id="text_5">
      <!-- 200 -->
      <g transform="translate(220.05625 188.638438)scale(0.1 -0.1)">
       <defs>
        <path id="DejaVuSans-32" d="M 1228 531 
L 3431 531 
L 3431 0 
L 469 0 
L 469 531 
Q 828 903 1448 1529 
Q 2069 2156 2228 2338 
Q 2531 2678 2651 2914 
Q 2772 3150 2772 3378 
Q 2772 3750 2511 3984 
Q 2250 4219 1831 4219 
Q 1534 4219 1204 4116 
Q 875 4013 500 3803 
L 500 4441 
Q 881 4594 1212 4672 
Q 1544 4750 1819 4750 
Q 2544 4750 2975 4387 
Q 3406 4025 3406 3419 
Q 3406 3131 3298 2873 
Q 3191 2616 2906 2266 
Q 2828 2175 2409 1742 
Q 1991 1309 1228 531 
z
" transform="scale(0.015625)"/>
       </defs>
       <use xlink:href="#DejaVuSans-32"/>
       <use xlink:href="#DejaVuSans-30" x="63.623047"/>
       <use xlink:href="#DejaVuSans-30" x="127.246094"/>
      </g>
     </g>
    </g>
    <g id="xtick_6">
     <g id="line2d_6">
      <g>
       <use xlink:href="#m47e83069fb" x="275.1375" y="174.04" style="stroke: #000000; stroke-width: 0.8"/>
      </g>
     </g>
     <g id="text_6">
      <!-- 250 -->
      <g transform="translate(265.59375 188.638438)scale(0.1 -0.1)">
       <use xlink:href="#DejaVuSans-32"/>
       <use xlink:href="#DejaVuSans-35" x="63.623047"/>
       <use xlink:href="#DejaVuSans-30" x="127.246094"/>
      </g>
     </g>
    </g>
    <g id="xtick_7">
     <g id="line2d_7">
      <g>
       <use xlink:href="#m47e83069fb" x="320.675" y="174.04" style="stroke: #000000; stroke-width: 0.8"/>
      </g>
     </g>
     <g id="text_7">
      <!-- 300 -->
      <g transform="translate(311.13125 188.638438)scale(0.1 -0.1)">
       <defs>
        <path id="DejaVuSans-33" d="M 2597 2516 
Q 3050 2419 3304 2112 
Q 3559 1806 3559 1356 
Q 3559 666 3084 287 
Q 2609 -91 1734 -91 
Q 1441 -91 1130 -33 
Q 819 25 488 141 
L 488 750 
Q 750 597 1062 519 
Q 1375 441 1716 441 
Q 2309 441 2620 675 
Q 2931 909 2931 1356 
Q 2931 1769 2642 2001 
Q 2353 2234 1838 2234 
L 1294 2234 
L 1294 2753 
L 1863 2753 
Q 2328 2753 2575 2939 
Q 2822 3125 2822 3475 
Q 2822 3834 2567 4026 
Q 2313 4219 1838 4219 
Q 1578 4219 1281 4162 
Q 984 4106 628 3988 
L 628 4550 
Q 988 4650 1302 4700 
Q 1616 4750 1894 4750 
Q 2613 4750 3031 4423 
Q 3450 4097 3450 3541 
Q 3450 3153 3228 2886 
Q 3006 2619 2597 2516 
z
" transform="scale(0.015625)"/>
       </defs>
       <use xlink:href="#DejaVuSans-33"/>
       <use xlink:href="#DejaVuSans-30" x="63.623047"/>
       <use xlink:href="#DejaVuSans-30" x="127.246094"/>
      </g>
     </g>
    </g>
    <g id="xtick_8">
     <g id="line2d_8">
      <g>
       <use xlink:href="#m47e83069fb" x="366.2125" y="174.04" style="stroke: #000000; stroke-width: 0.8"/>
      </g>
     </g>
     <g id="text_8">
      <!-- 350 -->
      <g transform="translate(356.66875 188.638438)scale(0.1 -0.1)">
       <use xlink:href="#DejaVuSans-33"/>
       <use xlink:href="#DejaVuSans-35" x="63.623047"/>
       <use xlink:href="#DejaVuSans-30" x="127.246094"/>
      </g>
     </g>
    </g>
    <g id="xtick_9">
     <g id="line2d_9">
      <g>
       <use xlink:href="#m47e83069fb" x="411.75" y="174.04" style="stroke: #000000; stroke-width: 0.8"/>
      </g>
     </g>
     <g id="text_9">
      <!-- 400 -->
      <g transform="translate(402.20625 188.638438)scale(0.1 -0.1)">
       <defs>
        <path id="DejaVuSans-34" d="M 2419 4116 
L 825 1625 
L 2419 1625 
L 2419 4116 
z
M 2253 4666 
L 3047 4666 
L 3047 1625 
L 3713 1625 
L 3713 1100 
L 3047 1100 
L 3047 0 
L 2419 0 
L 2419 1100 
L 313 1100 
L 313 1709 
L 2253 4666 
z
" transform="scale(0.015625)"/>
       </defs>
       <use xlink:href="#DejaVuSans-34"/>
       <use xlink:href="#DejaVuSans-30" x="63.623047"/>
       <use xlink:href="#DejaVuSans-30" x="127.246094"/>
      </g>
     </g>
    </g>
    <g id="text_10">
     <!-- time  -->
     <g transform="translate(216.714844 202.316563)scale(0.1 -0.1)">
      <defs>
       <path id="DejaVuSans-74" d="M 1172 4494 
L 1172 3500 
L 2356 3500 
L 2356 3053 
L 1172 3053 
L 1172 1153 
Q 1172 725 1289 603 
Q 1406 481 1766 481 
L 2356 481 
L 2356 0 
L 1766 0 
Q 1100 0 847 248 
Q 594 497 594 1153 
L 594 3053 
L 172 3053 
L 172 3500 
L 594 3500 
L 594 4494 
L 1172 4494 
z
" transform="scale(0.015625)"/>
       <path id="DejaVuSans-69" d="M 603 3500 
L 1178 3500 
L 1178 0 
L 603 0 
L 603 3500 
z
M 603 4863 
L 1178 4863 
L 1178 4134 
L 603 4134 
L 603 4863 
z
" transform="scale(0.015625)"/>
       <path id="DejaVuSans-6d" d="M 3328 2828 
Q 3544 3216 3844 3400 
Q 4144 3584 4550 3584 
Q 5097 3584 5394 3201 
Q 5691 2819 5691 2113 
L 5691 0 
L 5113 0 
L 5113 2094 
Q 5113 2597 4934 2840 
Q 4756 3084 4391 3084 
Q 3944 3084 3684 2787 
Q 3425 2491 3425 1978 
L 3425 0 
L 2847 0 
L 2847 2094 
Q 2847 2600 2669 2842 
Q 2491 3084 2119 3084 
Q 1678 3084 1418 2786 
Q 1159 2488 1159 1978 
L 1159 0 
L 581 0 
L 581 3500 
L 1159 3500 
L 1159 2956 
Q 1356 3278 1631 3431 
Q 1906 3584 2284 3584 
Q 2666 3584 2933 3390 
Q 3200 3197 3328 2828 
z
" transform="scale(0.015625)"/>
       <path id="DejaVuSans-65" d="M 3597 1894 
L 3597 1613 
L 953 1613 
Q 991 1019 1311 708 
Q 1631 397 2203 397 
Q 2534 397 2845 478 
Q 3156 559 3463 722 
L 3463 178 
Q 3153 47 2828 -22 
Q 2503 -91 2169 -91 
Q 1331 -91 842 396 
Q 353 884 353 1716 
Q 353 2575 817 3079 
Q 1281 3584 2069 3584 
Q 2775 3584 3186 3129 
Q 3597 2675 3597 1894 
z
M 3022 2063 
Q 3016 2534 2758 2815 
Q 2500 3097 2075 3097 
Q 1594 3097 1305 2825 
Q 1016 2553 972 2059 
L 3022 2063 
z
" transform="scale(0.015625)"/>
       <path id="DejaVuSans-20" transform="scale(0.015625)"/>
      </defs>
      <use xlink:href="#DejaVuSans-74"/>
      <use xlink:href="#DejaVuSans-69" x="39.208984"/>
      <use xlink:href="#DejaVuSans-6d" x="66.992188"/>
      <use xlink:href="#DejaVuSans-65" x="164.404297"/>
      <use xlink:href="#DejaVuSans-20" x="225.927734"/>
     </g>
    </g>
   </g>
   <g id="matplotlib.axis_2">
    <g id="ytick_1">
     <g id="line2d_10">
      <defs>
       <path id="m81263d0814" d="M 0 0 
L -3.5 0 
" style="stroke: #000000; stroke-width: 0.8"/>
      </defs>
      <g>
       <use xlink:href="#m81263d0814" x="47.45" y="167.416364" style="stroke: #000000; stroke-width: 0.8"/>
      </g>
     </g>
     <g id="text_11">
      <!-- 0 -->
      <g transform="translate(34.0875 171.215582)scale(0.1 -0.1)">
       <use xlink:href="#DejaVuSans-30"/>
      </g>
     </g>
    </g>
    <g id="ytick_2">
     <g id="line2d_11">
      <g>
       <use xlink:href="#m81263d0814" x="47.45" y="140.49642" style="stroke: #000000; stroke-width: 0.8"/>
      </g>
     </g>
     <g id="text_12">
      <!-- 5 -->
      <g transform="translate(34.0875 144.295639)scale(0.1 -0.1)">
       <use xlink:href="#DejaVuSans-35"/>
      </g>
     </g>
    </g>
    <g id="ytick_3">
     <g id="line2d_12">
      <g>
       <use xlink:href="#m81263d0814" x="47.45" y="113.576477" style="stroke: #000000; stroke-width: 0.8"/>
      </g>
     </g>
     <g id="text_13">
      <!-- 10 -->
      <g transform="translate(27.725 117.375696)scale(0.1 -0.1)">
       <use xlink:href="#DejaVuSans-31"/>
       <use xlink:href="#DejaVuSans-30" x="63.623047"/>
      </g>
     </g>
    </g>
    <g id="ytick_4">
     <g id="line2d_13">
      <g>
       <use xlink:href="#m81263d0814" x="47.45" y="86.656534" style="stroke: #000000; stroke-width: 0.8"/>
      </g>
     </g>
     <g id="text_14">
      <!-- 15 -->
      <g transform="translate(27.725 90.455753)scale(0.1 -0.1)">
       <use xlink:href="#DejaVuSans-31"/>
       <use xlink:href="#DejaVuSans-35" x="63.623047"/>
      </g>
     </g>
    </g>
    <g id="ytick_5">
     <g id="line2d_14">
      <g>
       <use xlink:href="#m81263d0814" x="47.45" y="59.736591" style="stroke: #000000; stroke-width: 0.8"/>
      </g>
     </g>
     <g id="text_15">
      <!-- 20 -->
      <g transform="translate(27.725 63.53581)scale(0.1 -0.1)">
       <use xlink:href="#DejaVuSans-32"/>
       <use xlink:href="#DejaVuSans-30" x="63.623047"/>
      </g>
     </g>
    </g>
    <g id="ytick_6">
     <g id="line2d_15">
      <g>
       <use xlink:href="#m81263d0814" x="47.45" y="32.816648" style="stroke: #000000; stroke-width: 0.8"/>
      </g>
     </g>
     <g id="text_16">
      <!-- 25 -->
      <g transform="translate(27.725 36.615867)scale(0.1 -0.1)">
       <use xlink:href="#DejaVuSans-32"/>
       <use xlink:href="#DejaVuSans-35" x="63.623047"/>
      </g>
     </g>
    </g>
    <g id="text_17">
     <!-- $\sigma(\mu_s)$ (signal unit) -->
     <g transform="translate(21.625 144.98)rotate(-90)scale(0.1 -0.1)">
      <defs>
       <path id="DejaVuSans-Oblique-3c3" d="M 2219 3044 
Q 1744 3044 1422 2700 
Q 1081 2341 969 1747 
Q 844 1119 1044 756 
Q 1241 397 1706 397 
Q 2166 397 2503 759 
Q 2844 1122 2966 1747 
Q 3075 2319 2881 2700 
Q 2700 3044 2219 3044 
z
M 2309 3503 
L 4219 3500 
L 4106 2925 
L 3463 2925 
Q 3706 2438 3575 1747 
Q 3406 888 2884 400 
Q 2359 -91 1609 -91 
Q 856 -91 525 400 
Q 194 888 363 1747 
Q 528 2609 1050 3097 
Q 1484 3503 2309 3503 
z
" transform="scale(0.015625)"/>
       <path id="DejaVuSans-28" d="M 1984 4856 
Q 1566 4138 1362 3434 
Q 1159 2731 1159 2009 
Q 1159 1288 1364 580 
Q 1569 -128 1984 -844 
L 1484 -844 
Q 1016 -109 783 600 
Q 550 1309 550 2009 
Q 550 2706 781 3412 
Q 1013 4119 1484 4856 
L 1984 4856 
z
" transform="scale(0.015625)"/>
       <path id="DejaVuSans-Oblique-3bc" d="M -84 -1331 
L 856 3500 
L 1434 3500 
L 1009 1322 
Q 997 1256 987 1175 
Q 978 1094 978 1013 
Q 978 722 1161 565 
Q 1344 409 1684 409 
Q 2147 409 2431 671 
Q 2716 934 2816 1459 
L 3213 3500 
L 3788 3500 
L 3266 809 
Q 3253 750 3248 706 
Q 3244 663 3244 628 
Q 3244 531 3283 486 
Q 3322 441 3406 441 
Q 3438 441 3492 456 
Q 3547 472 3647 513 
L 3559 50 
Q 3422 -19 3297 -55 
Q 3172 -91 3053 -91 
Q 2847 -91 2730 40 
Q 2613 172 2613 403 
Q 2438 153 2195 31 
Q 1953 -91 1625 -91 
Q 1334 -91 1117 43 
Q 900 178 831 397 
L 494 -1331 
L -84 -1331 
z
" transform="scale(0.015625)"/>
       <path id="DejaVuSans-Oblique-73" d="M 3200 3397 
L 3091 2853 
Q 2863 2978 2609 3040 
Q 2356 3103 2088 3103 
Q 1634 3103 1373 2948 
Q 1113 2794 1113 2528 
Q 1113 2219 1719 2053 
Q 1766 2041 1788 2034 
L 1972 1978 
Q 2547 1819 2739 1644 
Q 2931 1469 2931 1166 
Q 2931 609 2489 259 
Q 2047 -91 1331 -91 
Q 1053 -91 747 -37 
Q 441 16 72 128 
L 184 722 
Q 500 559 806 475 
Q 1113 391 1394 391 
Q 1816 391 2080 572 
Q 2344 753 2344 1031 
Q 2344 1331 1650 1516 
L 1591 1531 
L 1394 1581 
Q 956 1697 753 1886 
Q 550 2075 550 2369 
Q 550 2928 970 3256 
Q 1391 3584 2113 3584 
Q 2397 3584 2667 3537 
Q 2938 3491 3200 3397 
z
" transform="scale(0.015625)"/>
       <path id="DejaVuSans-29" d="M 513 4856 
L 1013 4856 
Q 1481 4119 1714 3412 
Q 1947 2706 1947 2009 
Q 1947 1309 1714 600 
Q 1481 -109 1013 -844 
L 513 -844 
Q 928 -128 1133 580 
Q 1338 1288 1338 2009 
Q 1338 2731 1133 3434 
Q 928 4138 513 4856 
z
" transform="scale(0.015625)"/>
       <path id="DejaVuSans-73" d="M 2834 3397 
L 2834 2853 
Q 2591 2978 2328 3040 
Q 2066 3103 1784 3103 
Q 1356 3103 1142 2972 
Q 928 2841 928 2578 
Q 928 2378 1081 2264 
Q 1234 2150 1697 2047 
L 1894 2003 
Q 2506 1872 2764 1633 
Q 3022 1394 3022 966 
Q 3022 478 2636 193 
Q 2250 -91 1575 -91 
Q 1294 -91 989 -36 
Q 684 19 347 128 
L 347 722 
Q 666 556 975 473 
Q 1284 391 1588 391 
Q 1994 391 2212 530 
Q 2431 669 2431 922 
Q 2431 1156 2273 1281 
Q 2116 1406 1581 1522 
L 1381 1569 
Q 847 1681 609 1914 
Q 372 2147 372 2553 
Q 372 3047 722 3315 
Q 1072 3584 1716 3584 
Q 2034 3584 2315 3537 
Q 2597 3491 2834 3397 
z
" transform="scale(0.015625)"/>
       <path id="DejaVuSans-67" d="M 2906 1791 
Q 2906 2416 2648 2759 
Q 2391 3103 1925 3103 
Q 1463 3103 1205 2759 
Q 947 2416 947 1791 
Q 947 1169 1205 825 
Q 1463 481 1925 481 
Q 2391 481 2648 825 
Q 2906 1169 2906 1791 
z
M 3481 434 
Q 3481 -459 3084 -895 
Q 2688 -1331 1869 -1331 
Q 1566 -1331 1297 -1286 
Q 1028 -1241 775 -1147 
L 775 -588 
Q 1028 -725 1275 -790 
Q 1522 -856 1778 -856 
Q 2344 -856 2625 -561 
Q 2906 -266 2906 331 
L 2906 616 
Q 2728 306 2450 153 
Q 2172 0 1784 0 
Q 1141 0 747 490 
Q 353 981 353 1791 
Q 353 2603 747 3093 
Q 1141 3584 1784 3584 
Q 2172 3584 2450 3431 
Q 2728 3278 2906 2969 
L 2906 3500 
L 3481 3500 
L 3481 434 
z
" transform="scale(0.015625)"/>
       <path id="DejaVuSans-6e" d="M 3513 2113 
L 3513 0 
L 2938 0 
L 2938 2094 
Q 2938 2591 2744 2837 
Q 2550 3084 2163 3084 
Q 1697 3084 1428 2787 
Q 1159 2491 1159 1978 
L 1159 0 
L 581 0 
L 581 3500 
L 1159 3500 
L 1159 2956 
Q 1366 3272 1645 3428 
Q 1925 3584 2291 3584 
Q 2894 3584 3203 3211 
Q 3513 2838 3513 2113 
z
" transform="scale(0.015625)"/>
       <path id="DejaVuSans-61" d="M 2194 1759 
Q 1497 1759 1228 1600 
Q 959 1441 959 1056 
Q 959 750 1161 570 
Q 1363 391 1709 391 
Q 2188 391 2477 730 
Q 2766 1069 2766 1631 
L 2766 1759 
L 2194 1759 
z
M 3341 1997 
L 3341 0 
L 2766 0 
L 2766 531 
Q 2569 213 2275 61 
Q 1981 -91 1556 -91 
Q 1019 -91 701 211 
Q 384 513 384 1019 
Q 384 1609 779 1909 
Q 1175 2209 1959 2209 
L 2766 2209 
L 2766 2266 
Q 2766 2663 2505 2880 
Q 2244 3097 1772 3097 
Q 1472 3097 1187 3025 
Q 903 2953 641 2809 
L 641 3341 
Q 956 3463 1253 3523 
Q 1550 3584 1831 3584 
Q 2591 3584 2966 3190 
Q 3341 2797 3341 1997 
z
" transform="scale(0.015625)"/>
       <path id="DejaVuSans-6c" d="M 603 4863 
L 1178 4863 
L 1178 0 
L 603 0 
L 603 4863 
z
" transform="scale(0.015625)"/>
       <path id="DejaVuSans-75" d="M 544 1381 
L 544 3500 
L 1119 3500 
L 1119 1403 
Q 1119 906 1312 657 
Q 1506 409 1894 409 
Q 2359 409 2629 706 
Q 2900 1003 2900 1516 
L 2900 3500 
L 3475 3500 
L 3475 0 
L 2900 0 
L 2900 538 
Q 2691 219 2414 64 
Q 2138 -91 1772 -91 
Q 1169 -91 856 284 
Q 544 659 544 1381 
z
M 1991 3584 
L 1991 3584 
z
" transform="scale(0.015625)"/>
      </defs>
      <use xlink:href="#DejaVuSans-Oblique-3c3" transform="translate(0 0.015625)"/>
      <use xlink:href="#DejaVuSans-28" transform="translate(63.378906 0.015625)"/>
      <use xlink:href="#DejaVuSans-Oblique-3bc" transform="translate(102.392578 0.015625)"/>
      <use xlink:href="#DejaVuSans-Oblique-73" transform="translate(166.015625 -16.390625)scale(0.7)"/>
      <use xlink:href="#DejaVuSans-29" transform="translate(205.219727 0.015625)"/>
      <use xlink:href="#DejaVuSans-20" transform="translate(244.233398 0.015625)"/>
      <use xlink:href="#DejaVuSans-28" transform="translate(276.020508 0.015625)"/>
      <use xlink:href="#DejaVuSans-73" transform="translate(315.03418 0.015625)"/>
      <use xlink:href="#DejaVuSans-69" transform="translate(367.133789 0.015625)"/>
      <use xlink:href="#DejaVuSans-67" transform="translate(394.916992 0.015625)"/>
      <use xlink:href="#DejaVuSans-6e" transform="translate(458.393555 0.015625)"/>
      <use xlink:href="#DejaVuSans-61" transform="translate(521.772461 0.015625)"/>
      <use xlink:href="#DejaVuSans-6c" transform="translate(583.051758 0.015625)"/>
      <use xlink:href="#DejaVuSans-20" transform="translate(610.834961 0.015625)"/>
      <use xlink:href="#DejaVuSans-75" transform="translate(642.62207 0.015625)"/>
      <use xlink:href="#DejaVuSans-6e" transform="translate(706.000977 0.015625)"/>
      <use xlink:href="#DejaVuSans-69" transform="translate(769.379883 0.015625)"/>
      <use xlink:href="#DejaVuSans-74" transform="translate(797.163086 0.015625)"/>
      <use xlink:href="#DejaVuSans-29" transform="translate(836.37207 0.015625)"/>
     </g>
    </g>
   </g>
   <g id="line2d_16">
    <path d="M 54.884694 80.087604 
L 62.319388 77.865373 
L 69.754082 66.079565 
L 77.188776 56.228694 
L 84.623469 52.34123 
L 92.058163 51.127079 
L 99.492857 50.789565 
L 106.927551 50.654271 
L 114.362245 50.572274 
L 121.796939 50.500157 
L 129.231633 50.481895 
L 136.666327 50.480845 
L 144.10102 50.471893 
L 151.535714 50.463711 
L 158.970408 50.471395 
L 166.405102 50.47031 
L 173.839796 50.46475 
L 181.27449 50.457297 
L 188.709184 50.459789 
L 196.143878 50.460072 
L 203.578571 50.455122 
L 211.013265 50.451881 
L 218.447959 50.450982 
L 225.882653 50.449546 
L 233.317347 50.448923 
L 240.752041 50.448923 
L 248.186735 50.448923 
L 255.621429 50.448923 
L 263.056122 50.448923 
L 270.490816 50.454714 
L 277.92551 50.454714 
L 285.360204 50.454714 
L 292.794898 50.454714 
L 300.229592 50.454714 
L 307.664286 50.454708 
L 315.09898 50.454709 
L 322.533673 50.454709 
L 329.968367 50.454709 
L 337.403061 50.454709 
L 344.837755 50.454709 
L 352.272449 50.454709 
L 359.707143 50.454709 
L 367.141837 50.454733 
L 374.576531 50.454733 
L 382.011224 50.454733 
L 389.445918 50.454733 
L 396.880612 50.454733 
L 404.315306 50.454733 
L 411.75 50.454733 
" clip-path="url(#p9b1e49fee7)" style="fill: none; stroke: #440154; stroke-width: 2; stroke-linecap: square"/>
   </g>
   <g id="line2d_17">
    <path d="M 54.884694 167.416364 
L 62.319388 167.416364 
L 69.754082 167.416364 
L 77.188776 167.416364 
L 84.623469 167.416364 
L 92.058163 167.416364 
L 99.492857 167.416364 
L 106.927551 167.416364 
L 114.362245 167.416364 
L 121.796939 167.416364 
L 129.231633 167.416364 
L 136.666327 167.416364 
L 144.10102 54.34246 
L 151.535714 100.477552 
L 158.970408 105.344301 
L 166.405102 105.950492 
L 173.839796 106.33789 
L 181.27449 106.466051 
L 188.709184 106.549082 
L 196.143878 106.596804 
L 203.578571 106.556288 
L 211.013265 106.569668 
L 218.447959 106.573103 
L 225.882653 106.589833 
L 233.317347 60.108836 
L 240.752041 103.322705 
L 248.186735 103.399658 
L 255.621429 92.892582 
L 263.056122 83.864056 
L 270.490816 79.929777 
L 277.92551 78.875444 
L 285.360204 78.28727 
L 292.794898 78.065069 
L 300.229592 77.914031 
L 307.664286 77.81925 
L 315.09898 77.782056 
L 322.533673 34.943636 
L 329.968367 65.509381 
L 337.403061 60.468115 
L 344.837755 54.191432 
L 352.272449 51.621377 
L 359.707143 50.869366 
L 367.141837 50.602247 
L 374.576531 50.502022 
L 382.011224 50.497957 
L 389.445918 50.47395 
L 396.880612 50.455102 
L 404.315306 50.456229 
L 411.75 50.454665 
" clip-path="url(#p9b1e49fee7)" style="fill: none; stroke-dasharray: 7.4,3.2; stroke-dashoffset: 0; stroke: #3b528b; stroke-width: 2"/>
   </g>
   <g id="line2d_18">
    <path d="M 54.884694 167.416364 
L 62.319388 167.416364 
L 69.754082 167.416364 
L 77.188776 167.416364 
L 84.623469 167.416364 
L 92.058163 167.416364 
L 99.492857 167.416364 
L 106.927551 167.416364 
L 114.362245 167.416364 
L 121.796939 167.416364 
L 129.231633 167.416364 
L 136.666327 167.416364 
L 144.10102 167.416364 
L 151.535714 167.416364 
L 158.970408 167.416364 
L 166.405102 167.416364 
L 173.839796 167.416364 
L 181.27449 167.416364 
L 188.709184 167.416364 
L 196.143878 167.416364 
L 203.578571 167.416364 
L 211.013265 167.416364 
L 218.447959 167.416364 
L 225.882653 167.416364 
L 233.317347 167.416364 
L 240.752041 167.416364 
L 248.186735 167.416364 
L 255.621429 167.416364 
L 263.056122 167.416364 
L 270.490816 167.416364 
L 277.92551 167.416364 
L 285.360204 167.416364 
L 292.794898 167.416364 
L 300.229592 167.416364 
L 307.664286 167.416364 
L 315.09898 167.416364 
L 322.533673 167.416364 
L 329.968367 167.416364 
L 337.403061 167.416364 
L 344.837755 167.416364 
L 352.272449 167.416364 
L 359.707143 167.416364 
L 367.141837 167.416364 
L 374.576531 167.416364 
L 382.011224 167.416364 
L 389.445918 167.416364 
L 396.880612 167.416364 
L 404.315306 167.416364 
L 411.75 167.416364 
" clip-path="url(#p9b1e49fee7)" style="fill: none; stroke-dasharray: 12.8,3.2,2,3.2; stroke-dashoffset: 0; stroke: #21918c; stroke-width: 2"/>
   </g>
   <g id="line2d_19">
    <path d="M 54.884694 101.047068 
L 62.319388 106.536421 
L 69.754082 97.93332 
L 77.188776 86.126004 
L 84.623469 80.320797 
L 92.058163 78.838998 
L 99.492857 78.281167 
L 106.927551 78.030023 
L 114.362245 77.878886 
L 121.796939 77.798634 
L 129.231633 77.765268 
L 136.666327 77.718318 
L 144.10102 77.709823 
L 151.535714 77.702582 
L 158.970408 77.699539 
L 166.405102 77.695776 
L 173.839796 77.686198 
L 181.27449 77.685487 
L 188.709184 77.690954 
L 196.143878 77.697896 
L 203.578571 77.690201 
L 211.013265 77.688139 
L 218.447959 77.687054 
L 225.882653 77.685843 
L 233.317347 77.685079 
L 240.752041 77.687898 
L 248.186735 77.6843 
L 255.621429 77.685384 
L 263.056122 77.683759 
L 270.490816 77.683101 
L 277.92551 77.684927 
L 285.360204 77.680937 
L 292.794898 77.680279 
L 300.229592 77.679734 
L 307.664286 77.679734 
L 315.09898 77.679734 
L 322.533673 77.679063 
L 329.968367 77.679063 
L 337.403061 77.679063 
L 344.837755 77.679063 
L 352.272449 77.679063 
L 359.707143 77.679063 
L 367.141837 77.679063 
L 374.576531 77.679061 
L 382.011224 77.679058 
L 389.445918 77.679058 
L 396.880612 77.679058 
L 404.315306 77.679058 
L 411.75 77.679058 
" clip-path="url(#p9b1e49fee7)" style="fill: none; stroke-dasharray: 2,3.3; stroke-dashoffset: 0; stroke: #5ec962; stroke-width: 2"/>
   </g>
   <g id="line2d_20">
    <path d="M 54.884694 73.607819 
L 62.319388 99.488711 
L 69.754082 104.281226 
L 77.188776 105.309111 
L 84.623469 105.824219 
L 92.058163 105.971033 
L 99.492857 106.057581 
L 106.927551 106.146935 
L 114.362245 106.130768 
L 121.796939 106.170546 
L 129.231633 106.181758 
L 136.666327 106.172563 
L 144.10102 106.156085 
L 151.535714 106.180662 
L 158.970408 106.188541 
L 166.405102 106.205084 
L 173.839796 106.196981 
L 181.27449 106.194583 
L 188.709184 106.197645 
L 196.143878 106.1919 
L 203.578571 106.188892 
L 211.013265 106.204906 
L 218.447959 106.210116 
L 225.882653 106.215589 
L 233.317347 106.215589 
L 240.752041 106.215077 
L 248.186735 106.217901 
L 255.621429 106.217775 
L 263.056122 106.21804 
L 270.490816 106.21804 
L 277.92551 106.211068 
L 285.360204 106.211068 
L 292.794898 106.210477 
L 300.229592 106.210547 
L 307.664286 106.20835 
L 315.09898 106.206709 
L 322.533673 106.206709 
L 329.968367 106.217022 
L 337.403061 106.217022 
L 344.837755 106.217022 
L 352.272449 106.217022 
L 359.707143 106.217022 
L 367.141837 106.217022 
L 374.576531 106.217022 
L 382.011224 106.217022 
L 389.445918 106.217022 
L 396.880612 106.217022 
L 404.315306 106.217022 
L 411.75 106.217022 
" clip-path="url(#p9b1e49fee7)" style="fill: none; stroke: #fde725; stroke-width: 2; stroke-linecap: square"/>
   </g>
   <g id="patch_3">
    <path d="M 47.45 174.04 
L 47.45 28.32 
" style="fill: none; stroke: #000000; stroke-width: 0.8; stroke-linejoin: miter; stroke-linecap: square"/>
   </g>
   <g id="patch_4">
    <path d="M 411.75 174.04 
L 411.75 28.32 
" style="fill: none; stroke: #000000; stroke-width: 0.8; stroke-linejoin: miter; stroke-linecap: square"/>
   </g>
   <g id="patch_5">
    <path d="M 47.45 174.04 
L 411.75 174.04 
" style="fill: none; stroke: #000000; stroke-width: 0.8; stroke-linejoin: miter; stroke-linecap: square"/>
   </g>
   <g id="patch_6">
    <path d="M 47.45 28.32 
L 411.75 28.32 
" style="fill: none; stroke: #000000; stroke-width: 0.8; stroke-linejoin: miter; stroke-linecap: square"/>
   </g>
   <g id="text_18">
    <!-- $\sigma(\mu_s)$ for diverse phenomena when metric=distance -->
    <g transform="translate(73.36 22.32)scale(0.12 -0.12)">
     <defs>
      <path id="DejaVuSans-66" d="M 2375 4863 
L 2375 4384 
L 1825 4384 
Q 1516 4384 1395 4259 
Q 1275 4134 1275 3809 
L 1275 3500 
L 2222 3500 
L 2222 3053 
L 1275 3053 
L 1275 0 
L 697 0 
L 697 3053 
L 147 3053 
L 147 3500 
L 697 3500 
L 697 3744 
Q 697 4328 969 4595 
Q 1241 4863 1831 4863 
L 2375 4863 
z
" transform="scale(0.015625)"/>
      <path id="DejaVuSans-6f" d="M 1959 3097 
Q 1497 3097 1228 2736 
Q 959 2375 959 1747 
Q 959 1119 1226 758 
Q 1494 397 1959 397 
Q 2419 397 2687 759 
Q 2956 1122 2956 1747 
Q 2956 2369 2687 2733 
Q 2419 3097 1959 3097 
z
M 1959 3584 
Q 2709 3584 3137 3096 
Q 3566 2609 3566 1747 
Q 3566 888 3137 398 
Q 2709 -91 1959 -91 
Q 1206 -91 779 398 
Q 353 888 353 1747 
Q 353 2609 779 3096 
Q 1206 3584 1959 3584 
z
" transform="scale(0.015625)"/>
      <path id="DejaVuSans-72" d="M 2631 2963 
Q 2534 3019 2420 3045 
Q 2306 3072 2169 3072 
Q 1681 3072 1420 2755 
Q 1159 2438 1159 1844 
L 1159 0 
L 581 0 
L 581 3500 
L 1159 3500 
L 1159 2956 
Q 1341 3275 1631 3429 
Q 1922 3584 2338 3584 
Q 2397 3584 2469 3576 
Q 2541 3569 2628 3553 
L 2631 2963 
z
" transform="scale(0.015625)"/>
      <path id="DejaVuSans-64" d="M 2906 2969 
L 2906 4863 
L 3481 4863 
L 3481 0 
L 2906 0 
L 2906 525 
Q 2725 213 2448 61 
Q 2172 -91 1784 -91 
Q 1150 -91 751 415 
Q 353 922 353 1747 
Q 353 2572 751 3078 
Q 1150 3584 1784 3584 
Q 2172 3584 2448 3432 
Q 2725 3281 2906 2969 
z
M 947 1747 
Q 947 1113 1208 752 
Q 1469 391 1925 391 
Q 2381 391 2643 752 
Q 2906 1113 2906 1747 
Q 2906 2381 2643 2742 
Q 2381 3103 1925 3103 
Q 1469 3103 1208 2742 
Q 947 2381 947 1747 
z
" transform="scale(0.015625)"/>
      <path id="DejaVuSans-76" d="M 191 3500 
L 800 3500 
L 1894 563 
L 2988 3500 
L 3597 3500 
L 2284 0 
L 1503 0 
L 191 3500 
z
" transform="scale(0.015625)"/>
      <path id="DejaVuSans-70" d="M 1159 525 
L 1159 -1331 
L 581 -1331 
L 581 3500 
L 1159 3500 
L 1159 2969 
Q 1341 3281 1617 3432 
Q 1894 3584 2278 3584 
Q 2916 3584 3314 3078 
Q 3713 2572 3713 1747 
Q 3713 922 3314 415 
Q 2916 -91 2278 -91 
Q 1894 -91 1617 61 
Q 1341 213 1159 525 
z
M 3116 1747 
Q 3116 2381 2855 2742 
Q 2594 3103 2138 3103 
Q 1681 3103 1420 2742 
Q 1159 2381 1159 1747 
Q 1159 1113 1420 752 
Q 1681 391 2138 391 
Q 2594 391 2855 752 
Q 3116 1113 3116 1747 
z
" transform="scale(0.015625)"/>
      <path id="DejaVuSans-68" d="M 3513 2113 
L 3513 0 
L 2938 0 
L 2938 2094 
Q 2938 2591 2744 2837 
Q 2550 3084 2163 3084 
Q 1697 3084 1428 2787 
Q 1159 2491 1159 1978 
L 1159 0 
L 581 0 
L 581 4863 
L 1159 4863 
L 1159 2956 
Q 1366 3272 1645 3428 
Q 1925 3584 2291 3584 
Q 2894 3584 3203 3211 
Q 3513 2838 3513 2113 
z
" transform="scale(0.015625)"/>
      <path id="DejaVuSans-77" d="M 269 3500 
L 844 3500 
L 1563 769 
L 2278 3500 
L 2956 3500 
L 3675 769 
L 4391 3500 
L 4966 3500 
L 4050 0 
L 3372 0 
L 2619 2869 
L 1863 0 
L 1184 0 
L 269 3500 
z
" transform="scale(0.015625)"/>
      <path id="DejaVuSans-63" d="M 3122 3366 
L 3122 2828 
Q 2878 2963 2633 3030 
Q 2388 3097 2138 3097 
Q 1578 3097 1268 2742 
Q 959 2388 959 1747 
Q 959 1106 1268 751 
Q 1578 397 2138 397 
Q 2388 397 2633 464 
Q 2878 531 3122 666 
L 3122 134 
Q 2881 22 2623 -34 
Q 2366 -91 2075 -91 
Q 1284 -91 818 406 
Q 353 903 353 1747 
Q 353 2603 823 3093 
Q 1294 3584 2113 3584 
Q 2378 3584 2631 3529 
Q 2884 3475 3122 3366 
z
" transform="scale(0.015625)"/>
      <path id="DejaVuSans-3d" d="M 678 2906 
L 4684 2906 
L 4684 2381 
L 678 2381 
L 678 2906 
z
M 678 1631 
L 4684 1631 
L 4684 1100 
L 678 1100 
L 678 1631 
z
" transform="scale(0.015625)"/>
     </defs>
     <use xlink:href="#DejaVuSans-Oblique-3c3" transform="translate(0 0.015625)"/>
     <use xlink:href="#DejaVuSans-28" transform="translate(63.378906 0.015625)"/>
     <use xlink:href="#DejaVuSans-Oblique-3bc" transform="translate(102.392578 0.015625)"/>
     <use xlink:href="#DejaVuSans-Oblique-73" transform="translate(166.015625 -16.390625)scale(0.7)"/>
     <use xlink:href="#DejaVuSans-29" transform="translate(205.219727 0.015625)"/>
     <use xlink:href="#DejaVuSans-20" transform="translate(244.233398 0.015625)"/>
     <use xlink:href="#DejaVuSans-66" transform="translate(276.020508 0.015625)"/>
     <use xlink:href="#DejaVuSans-6f" transform="translate(311.225586 0.015625)"/>
     <use xlink:href="#DejaVuSans-72" transform="translate(372.407227 0.015625)"/>
     <use xlink:href="#DejaVuSans-20" transform="translate(413.520508 0.015625)"/>
     <use xlink:href="#DejaVuSans-64" transform="translate(445.307617 0.015625)"/>
     <use xlink:href="#DejaVuSans-69" transform="translate(508.78418 0.015625)"/>
     <use xlink:href="#DejaVuSans-76" transform="translate(536.567383 0.015625)"/>
     <use xlink:href="#DejaVuSans-65" transform="translate(595.74707 0.015625)"/>
     <use xlink:href="#DejaVuSans-72" transform="translate(657.270508 0.015625)"/>
     <use xlink:href="#DejaVuSans-73" transform="translate(698.383789 0.015625)"/>
     <use xlink:href="#DejaVuSans-65" transform="translate(750.483398 0.015625)"/>
     <use xlink:href="#DejaVuSans-20" transform="translate(812.006836 0.015625)"/>
     <use xlink:href="#DejaVuSans-70" transform="translate(843.793945 0.015625)"/>
     <use xlink:href="#DejaVuSans-68" transform="translate(907.270508 0.015625)"/>
     <use xlink:href="#DejaVuSans-65" transform="translate(970.649414 0.015625)"/>
     <use xlink:href="#DejaVuSans-6e" transform="translate(1032.172852 0.015625)"/>
     <use xlink:href="#DejaVuSans-6f" transform="translate(1095.551758 0.015625)"/>
     <use xlink:href="#DejaVuSans-6d" transform="translate(1156.733398 0.015625)"/>
     <use xlink:href="#DejaVuSans-65" transform="translate(1254.145508 0.015625)"/>
     <use xlink:href="#DejaVuSans-6e" transform="translate(1315.668945 0.015625)"/>
     <use xlink:href="#DejaVuSans-61" transform="translate(1379.047852 0.015625)"/>
     <use xlink:href="#DejaVuSans-20" transform="translate(1440.327148 0.015625)"/>
     <use xlink:href="#DejaVuSans-77" transform="translate(1472.114258 0.015625)"/>
     <use xlink:href="#DejaVuSans-68" transform="translate(1553.901367 0.015625)"/>
     <use xlink:href="#DejaVuSans-65" transform="translate(1617.280273 0.015625)"/>
     <use xlink:href="#DejaVuSans-6e" transform="translate(1678.803711 0.015625)"/>
     <use xlink:href="#DejaVuSans-20" transform="translate(1742.182617 0.015625)"/>
     <use xlink:href="#DejaVuSans-6d" transform="translate(1773.969727 0.015625)"/>
     <use xlink:href="#DejaVuSans-65" transform="translate(1871.381836 0.015625)"/>
     <use xlink:href="#DejaVuSans-74" transform="translate(1932.905273 0.015625)"/>
     <use xlink:href="#DejaVuSans-72" transform="translate(1972.114258 0.015625)"/>
     <use xlink:href="#DejaVuSans-69" transform="translate(2013.227539 0.015625)"/>
     <use xlink:href="#DejaVuSans-63" transform="translate(2041.010742 0.015625)"/>
     <use xlink:href="#DejaVuSans-3d" transform="translate(2095.991211 0.015625)"/>
     <use xlink:href="#DejaVuSans-64" transform="translate(2179.780273 0.015625)"/>
     <use xlink:href="#DejaVuSans-69" transform="translate(2243.256836 0.015625)"/>
     <use xlink:href="#DejaVuSans-73" transform="translate(2271.040039 0.015625)"/>
     <use xlink:href="#DejaVuSans-74" transform="translate(2323.139648 0.015625)"/>
     <use xlink:href="#DejaVuSans-61" transform="translate(2362.348633 0.015625)"/>
     <use xlink:href="#DejaVuSans-6e" transform="translate(2423.62793 0.015625)"/>
     <use xlink:href="#DejaVuSans-63" transform="translate(2487.006836 0.015625)"/>
     <use xlink:href="#DejaVuSans-65" transform="translate(2541.987305 0.015625)"/>
    </g>
   </g>
   <g id="legend_1">
    <g id="patch_7">
     <path d="M 328.485937 169.04 
L 404.75 169.04 
Q 406.75 169.04 406.75 167.04 
L 406.75 94.649375 
Q 406.75 92.649375 404.75 92.649375 
L 328.485937 92.649375 
Q 326.485937 92.649375 326.485937 94.649375 
L 326.485937 167.04 
Q 326.485937 169.04 328.485937 169.04 
z
" style="fill: #ffffff; opacity: 0.8; stroke: #cccccc; stroke-linejoin: miter"/>
    </g>
    <g id="line2d_21">
     <path d="M 330.485937 100.747813 
L 340.485937 100.747813 
L 350.485937 100.747813 
" style="fill: none; stroke: #440154; stroke-width: 2; stroke-linecap: square"/>
    </g>
    <g id="text_19">
     <!-- multi -->
     <g transform="translate(358.485937 104.247813)scale(0.1 -0.1)">
      <use xlink:href="#DejaVuSans-6d"/>
      <use xlink:href="#DejaVuSans-75" x="97.412109"/>
      <use xlink:href="#DejaVuSans-6c" x="160.791016"/>
      <use xlink:href="#DejaVuSans-74" x="188.574219"/>
      <use xlink:href="#DejaVuSans-69" x="227.783203"/>
     </g>
    </g>
    <g id="line2d_22">
     <path d="M 330.485937 115.425938 
L 340.485937 115.425938 
L 350.485937 115.425938 
" style="fill: none; stroke-dasharray: 7.4,3.2; stroke-dashoffset: 0; stroke: #3b528b; stroke-width: 2"/>
    </g>
    <g id="text_20">
     <!-- dynamic -->
     <g transform="translate(358.485937 118.925938)scale(0.1 -0.1)">
      <defs>
       <path id="DejaVuSans-79" d="M 2059 -325 
Q 1816 -950 1584 -1140 
Q 1353 -1331 966 -1331 
L 506 -1331 
L 506 -850 
L 844 -850 
Q 1081 -850 1212 -737 
Q 1344 -625 1503 -206 
L 1606 56 
L 191 3500 
L 800 3500 
L 1894 763 
L 2988 3500 
L 3597 3500 
L 2059 -325 
z
" transform="scale(0.015625)"/>
      </defs>
      <use xlink:href="#DejaVuSans-64"/>
      <use xlink:href="#DejaVuSans-79" x="63.476562"/>
      <use xlink:href="#DejaVuSans-6e" x="122.65625"/>
      <use xlink:href="#DejaVuSans-61" x="186.035156"/>
      <use xlink:href="#DejaVuSans-6d" x="247.314453"/>
      <use xlink:href="#DejaVuSans-69" x="344.726562"/>
      <use xlink:href="#DejaVuSans-63" x="372.509766"/>
     </g>
    </g>
    <g id="line2d_23">
     <path d="M 330.485937 130.104062 
L 340.485937 130.104062 
L 350.485937 130.104062 
" style="fill: none; stroke-dasharray: 12.8,3.2,2,3.2; stroke-dashoffset: 0; stroke: #21918c; stroke-width: 2"/>
    </g>
    <g id="text_21">
     <!-- constant -->
     <g transform="translate(358.485937 133.604062)scale(0.1 -0.1)">
      <use xlink:href="#DejaVuSans-63"/>
      <use xlink:href="#DejaVuSans-6f" x="54.980469"/>
      <use xlink:href="#DejaVuSans-6e" x="116.162109"/>
      <use xlink:href="#DejaVuSans-73" x="179.541016"/>
      <use xlink:href="#DejaVuSans-74" x="231.640625"/>
      <use xlink:href="#DejaVuSans-61" x="270.849609"/>
      <use xlink:href="#DejaVuSans-6e" x="332.128906"/>
      <use xlink:href="#DejaVuSans-74" x="395.507812"/>
     </g>
    </g>
    <g id="line2d_24">
     <path d="M 330.485937 144.782188 
L 340.485937 144.782188 
L 350.485937 144.782188 
" style="fill: none; stroke-dasharray: 2,3.3; stroke-dashoffset: 0; stroke: #5ec962; stroke-width: 2"/>
    </g>
    <g id="text_22">
     <!-- bivariate -->
     <g transform="translate(358.485937 148.282188)scale(0.1 -0.1)">
      <defs>
       <path id="DejaVuSans-62" d="M 3116 1747 
Q 3116 2381 2855 2742 
Q 2594 3103 2138 3103 
Q 1681 3103 1420 2742 
Q 1159 2381 1159 1747 
Q 1159 1113 1420 752 
Q 1681 391 2138 391 
Q 2594 391 2855 752 
Q 3116 1113 3116 1747 
z
M 1159 2969 
Q 1341 3281 1617 3432 
Q 1894 3584 2278 3584 
Q 2916 3584 3314 3078 
Q 3713 2572 3713 1747 
Q 3713 922 3314 415 
Q 2916 -91 2278 -91 
Q 1894 -91 1617 61 
Q 1341 213 1159 525 
L 1159 0 
L 581 0 
L 581 4863 
L 1159 4863 
L 1159 2969 
z
" transform="scale(0.015625)"/>
      </defs>
      <use xlink:href="#DejaVuSans-62"/>
      <use xlink:href="#DejaVuSans-69" x="63.476562"/>
      <use xlink:href="#DejaVuSans-76" x="91.259766"/>
      <use xlink:href="#DejaVuSans-61" x="150.439453"/>
      <use xlink:href="#DejaVuSans-72" x="211.71875"/>
      <use xlink:href="#DejaVuSans-69" x="252.832031"/>
      <use xlink:href="#DejaVuSans-61" x="280.615234"/>
      <use xlink:href="#DejaVuSans-74" x="341.894531"/>
      <use xlink:href="#DejaVuSans-65" x="381.103516"/>
     </g>
    </g>
    <g id="line2d_25">
     <path d="M 330.485937 159.460313 
L 340.485937 159.460313 
L 350.485937 159.460313 
" style="fill: none; stroke: #fde725; stroke-width: 2; stroke-linecap: square"/>
    </g>
    <g id="text_23">
     <!-- uniform -->
     <g transform="translate(358.485937 162.960313)scale(0.1 -0.1)">
      <use xlink:href="#DejaVuSans-75"/>
      <use xlink:href="#DejaVuSans-6e" x="63.378906"/>
      <use xlink:href="#DejaVuSans-69" x="126.757812"/>
      <use xlink:href="#DejaVuSans-66" x="154.541016"/>
      <use xlink:href="#DejaVuSans-6f" x="189.746094"/>
      <use xlink:href="#DejaVuSans-72" x="250.927734"/>
      <use xlink:href="#DejaVuSans-6d" x="290.291016"/>
     </g>
    </g>
   </g>
  </g>
 </g>
 <defs>
  <clipPath id="p9b1e49fee7">
   <rect x="47.45" y="28.32" width="364.3" height="145.72"/>
  </clipPath>
 </defs>
</svg>
